<svg xmlns="http://www.w3.org/2000/svg" viewBox="0 0 239.56 284.6"><defs><style>.cls-1{fill:#434382;}.cls-2{fill:#7a5642;}.cls-3,.cls-7{fill:#9fbfd8;}.cls-4{fill:#cb9876;}.cls-5{fill:#e2af85;}.cls-6{fill:none;}.cls-6,.cls-7{stroke:#80a1c1;stroke-miterlimit:10;stroke-width:1.81px;}.cls-12,.cls-8{fill:#2a1d16;}.cls-8{opacity:0.22;}.cls-9{fill:#5b7a90;}.cls-10,.cls-11,.cls-15{fill:#62432f;}.cls-11{opacity:0.71;}.cls-12{opacity:0.15;}.cls-13{fill:#9f7258;}.cls-14{fill:#b18164;}.cls-15{opacity:0.5;}.cls-16{fill:#724d39;}.cls-17{fill:#1d130e;}.cls-18{fill:#805440;}.cls-19{fill:#ead9ce;}.cls-20{opacity:0.14;}.cls-21{fill:#cfe7f8;}.cls-22{fill:#1d1d1b;}.cls-23{fill:#c1afa6;}</style></defs><title>Asset 2</title><g id="Layer_2" data-name="Layer 2"><g id="Layer_1-2" data-name="Layer 1"><path class="cls-1" d="M239.56,167.29a114.89,114.89,0,0,1-17.65,61.31A121.46,121.46,0,0,1,77,276.87a119.12,119.12,0,0,1-66.42-61.39A114.93,114.93,0,0,1,0,167.29,116.15,116.15,0,0,1,43.28,77,120,120,0,0,1,70.8,60.2c3.49-1.53,7.07-2.91,10.73-4.11l.51-.17h0a116.53,116.53,0,0,1,11.67-3.15l.18,0,1.58-.34A122.14,122.14,0,0,1,117,50c.91,0,1.82,0,2.74,0s1.86,0,2.79,0a121.31,121.31,0,0,1,32.56,5.15c2.93.89,5.82,1.88,8.65,3a120.56,120.56,0,0,1,35.45,21.36A116,116,0,0,1,239.56,167.29Z"/><path class="cls-2" d="M200.8,77c-5.05,9.08-10.42,7.88-12.82,15.63-2.87,9.25,3.25,15.87-1.12,20.67-1.9,2.09-4.56,2.47-6.77,3.11-1.67.48-3.09,1.12-3.74,2.76s.05,2.39.63,4.54a19.33,19.33,0,0,1,.56,3.26c.18,2.1.77,8.77-2.7,11.31-2.27,1.67-4.46.25-5.85,2-1.86,2.3,1.21,5.87-.37,7.8s-7.41,1.19-10.92-1.92a11.15,11.15,0,0,1-2.44-3.16,15.94,15.94,0,0,1-1.55-4.73,25.83,25.83,0,0,1-.33-3.8,26.38,26.38,0,0,0-1.21-6.53c-2.25-7.61-7.47-17.75-14.25-27.92-2.24-3.36-4.65-6.72-7.18-10-1.8-2.33-3.67-4.61-5.57-6.82-1-1.15-2-2.28-3-3.38-2.19-2.39-4.42-4.65-6.66-6.75A71.3,71.3,0,0,0,101.4,62.52c-5.62-3.05-11-4.36-15.67-3.16-4.47,1.15-7.31,4.33-10,8.31-.92,1.34-1.82,2.78-2.77,4.26-.8,1.24-1.62,2.51-2.52,3.78a48,48,0,0,1-3,3.89,33.43,33.43,0,0,1-10.26,8.19,36.66,36.66,0,0,1-4.89,2.07c-7,2.37-14.42,2.72-15.21.81-1-2.53,9.92-8.39,8.55-12.11-.76-2.07-4.5-1.12-8.11-4.22L37,73.91c-.51-.5-3.65-3.63-3.53-7.4.1-3,2.18-5.08,10.5-11.73C53.78,47,57,45.05,56.45,43.44c-.59-1.88-5.9-2.15-9.75-1.53C39,43.16,35.28,48.29,34.23,47.4c-1.33-1.13,2-11.95,10.1-15.23,7.27-3,12.22,2.67,20.28-1.22,2.91-1.41,7-4.46,6.61-7.43-.35-2.34-3.46-4.1-5.86-4.66-3.75-.88-5.88,1.13-7,0-1.39-1.37.19-6.79,3.87-9.37,5.34-3.74,14.09-.84,19.24,2.29C88.32,16,90.6,21.62,93,20.74c2-.74.74-4.85,3.1-9.76C99,5.14,105.58.4,111.71,0c8.5-.52,9.75,7.74,19.52,10.48,14.55,4.08,23.46-11,33.13-6.32,9.91,4.78,5.73,23.14,16.44,27.25,6.7,2.57,13.24-2.7,15.6.35,3.15,4.08-7,15.48-4,18.61,1.79,1.87,5.86-1.75,9.11.09C206.41,53.27,206.49,66.8,200.8,77Z"/><path class="cls-3" d="M221.91,228.6A121.46,121.46,0,0,1,77,276.87a119.12,119.12,0,0,1-66.42-61.39,63.51,63.51,0,0,0,8.61-9.88c.38-.52.75-1.06,1.13-1.62,7.42-11,7.28-16.69,13.28-23.25a3.07,3.07,0,0,1,.25-.26l.52-.54c.58-.6,1.21-1.2,1.91-1.8l.41-.37A50.16,50.16,0,0,1,52.5,168.7l.36-.12.66-.22c4.3-1.37,9.19-3,15-2.67a26.94,26.94,0,0,1,3.94.54c4.5,1,6.52,2.75,12,6.18.67.43,1.39.87,2.17,1.35,2,1.2,4.65,2.82,7.56,4.45l1.3.71a59.79,59.79,0,0,0,11.12,4.9c7,2,14.38.82,21.65-1.49h0c9.41-3,18.61-7.87,26.57-10.16a25.54,25.54,0,0,1,8.92-1.23c.69.05,1.35.13,2,.23h0a26.33,26.33,0,0,1,10.48,3.9c5.48,3.66,4.94,6.74,9.38,10.37,6.26,5.1,15.29.77,24.45,6.44,4.92,3,6.92,7.74,9.14,13A70.93,70.93,0,0,1,221.91,228.6Z"/><g id="gat"><path class="cls-4" d="M92.82,188.53c-1.4-.8-5,1.39-7,3.53a9.24,9.24,0,0,0-2.07,3c-1.31,3.47,1,8.33,5.49,12.21C94.36,193.14,94.13,189.28,92.82,188.53Z"/><path class="cls-5" d="M156,190.41a79.82,79.82,0,0,1-23.85,21.93c-8.2,2.77-17,3.6-24,2a48.45,48.45,0,0,1-5.91-19.1l-7,7.73q-1-2.55-2.28-6c-.83-2.28-1.74-4.87-2.78-7.81-.09-.27-.19-.54-.29-.81-2.25-6.39-3.95-11.23-5-14.84s-1.66-6.19-1.49-7.69a15.77,15.77,0,0,1,.73-3.29,26.18,26.18,0,0,1,7-10.38c13.93-13.45,42.76-21.87,55.9-16.77a11.69,11.69,0,0,1,4.52,3c1.38,1.54,1.62,2.88,1.93,9,.12,2.15.24,4.89.43,8.45l0,.51C155.08,179.79,156.26,186.62,156,190.41Z"/></g><g id="guler"><path class="cls-6" d="M71.3,185.86l15.31-12.1"/><path class="cls-7" d="M81.42,194.47q-4.2,2.47-8.59,5.29-4,2.63-7.78,5.22,1.61-5.13,3.35-10.4,1.41-4.23,2.84-8.33a41.33,41.33,0,0,1,10.18,8.22c.67.74,1.33,1.53,2,2.37.22.26.42.53.62.81s.29.4.42.6a45.26,45.26,0,0,1,4.8,9l.65,1.56a48.94,48.94,0,0,1,3.81,16.36c.29,8.31-2.31,13.93-5.92,22.63-2.86,6.91-6.67,16.65-10.81,29.06"/><path class="cls-7" d="M89.88,208.82Q91,203,92.06,197.11l10.14-1.84"/><path class="cls-8" d="M71.68,187.59q-2.52,7.6-5,15.22L80,194.37a39.82,39.82,0,0,0-8.29-6.78Z"/><path class="cls-9" d="M105,204.15c0,1.89-2.39,2.84-3.55,3.08-.5.1-2.2.45-3.13-.6a2.85,2.85,0,0,1-.44-2.46,3.82,3.82,0,0,1,3.55-3.07A3.33,3.33,0,0,1,105,204.15Z"/><path class="cls-7" d="M165.87,170.78a73.87,73.87,0,0,1-6.51,14.46q-1.59,2.72-3.35,5.17a79.82,79.82,0,0,1-23.85,21.93,99.2,99.2,0,0,1-19.37,9c-1.23-1.77-2.85-4.14-4.68-7-1.53-2.39-3.3-5.17-5.37-8.9-1.34-2.43-3-5.61-4.76-9.44a45.24,45.24,0,0,0,6.19-1.33c.69-.19,1.35-.4,2-.62,0,0,2.91-1,5.74-2.11,20.72-8.53,37.79-30.61,37.79-30.61,1.23-1.6,3.14-4.16,5.31-7.47Z"/></g><path class="cls-5" d="M180.09,116.41a19.06,19.06,0,0,1-3.11,7.3c-1.49,2.36-3.42,5-5.61,7.89-5.79,7.79-8.66,8.08-10,8-2.1-.21-2.79-1.71-4.14-2.26a2.3,2.3,0,0,0-.81-.2,3.55,3.55,0,0,0-2.73,1.15,10.53,10.53,0,0,0-1.31,1.55c-2.66,3.74-5.11,10.6-8.78,15.63-10,13.64-29.77,14.85-38.53,15.43a105.76,105.76,0,0,1-12.38.28,47.21,47.21,0,0,1-8.95-1.28,29.28,29.28,0,0,1-13.61-7.33c-4.85-4.73-6.46-10.75-9.69-22.78A134.7,134.7,0,0,1,56.6,118.8c-.73-7.76-.53-15.94,2.21-21.52a15.31,15.31,0,0,1,1.54-2.51,34.09,34.09,0,0,0,4.9-8,33.44,33.44,0,0,0,2.18-7.16c.16-.91.26-1.64.33-2.13s.14-1,.22-1.63c.14-1,.3-2.09.48-3.27s.33-2.13.52-3.26c.59-3.52,1.34-7.42,2.3-11l0-.11a41.51,41.51,0,0,1,3-8.16C79,41,89.47,38,100.41,34.85c6.09-1.75,30.43-8.72,47.87,4.34a49.46,49.46,0,0,1,10.48,11.4c3.3,4.57,9.7,13.42,11,24.41,1.12,9.67-2,18.43-4.17,24.43-.19.51-.37,1-.53,1.48-1.24,3.47-1.92,5.78-.76,6.48a1.16,1.16,0,0,0,.7.17c1.39-.11,3.34-2.13,6.71-1.67a9.08,9.08,0,0,1,3.34,1.2,10.86,10.86,0,0,1,4.59,5.21A8,8,0,0,1,180.09,116.41Z"/><path class="cls-10" d="M93.83,72c.85,1.88-.08,4.68-1.68,5.32-1.22.48-2.11-.57-5.08-2.07A27.44,27.44,0,0,0,75.89,72a24,24,0,0,0-5.2.14c-2.06.38-3.53.84-3.9.27s.51-1.64.65-1.82A5.2,5.2,0,0,1,70,68.88a24.65,24.65,0,0,1,6.17-1.25,39.08,39.08,0,0,1,12.87,1.6C92.78,70.37,93.49,71.21,93.83,72Z"/><path class="cls-11" d="M84.5,120.79c.76,1.14.11,3.37-1.2,4.17-1.1.67-2.08,0-4.85-.34a20.15,20.15,0,0,0-5.37.19c-4.25.62-6.62,2.4-6.93,1.92s1.24-2,2.76-3.12c.69-.51,2.9-2,8-3C80.84,119.92,83.6,119.42,84.5,120.79Z"/><path class="cls-12" d="M81.32,109.5a12,12,0,0,0,.4,5.28,5.36,5.36,0,0,0,.73,1.26l0,0c.63.94,2.24,3.33,4.33,3.72,1.32.25,1.7-.52,2.21-.13,1.66,1.26-2.73,9.23-3.22,9.9l-.27.37q-.3.44-.57.9A12.86,12.86,0,0,0,83.39,136a13.56,13.56,0,0,0-.1,1.44c0,.37,0,.75,0,1.13,0,.7,0,1.42.13,2.16a41.37,41.37,0,0,0,.84,5.17c.25,1.1.53,2.23.85,3.39.62,2.26,1.36,4.61,2.19,7,1.63,4.76,3.56,9.76,5.41,14.78a16.7,16.7,0,0,1,1.16,3.17,16.29,16.29,0,0,1,.23,4.87c-.2,1.72-2.59,15-15.8,24.47-7.55,5.42-14.54,6.73-26.49,8.91-8.17,1.49-12.32,2.2-15.53.43-4.06-2.24-5.18-6.16-10-7-3.72-.65-6.26,1.12-7,0s2-3.54,5-9c2.44-4.39,2-5.29,4-9a36.52,36.52,0,0,1,8.37-10.22,44.57,44.57,0,0,1,16.87-9.4c4.3-1.37,9.19-3,15-2.67-5-5.29-6.59-12.16-9.64-25.25-2.49-10.67-3.37-21.39-2.31-21.64-.73-7.76-.53-15.94,2.21-21.52a14.15,14.15,0,0,1-.8-2c-.54-1.7-.62-3.34-.8-6.63,0-.3,0-.6,0-.88a36.66,36.66,0,0,1-4.89,2.07c-7,2.37-14.42,2.72-15.21.81-1-2.53,9.92-8.39,8.55-12.11-.76-2.07-4.5-1.12-8.11-4.22C46,71.8,55.4,68.42,61.81,64c.32-.22.63-.44.93-.67a37.68,37.68,0,0,1,6.35-4h0c.46-.22.93-.45,1.44-.66.25-.12.5-.22.75-.32a31.16,31.16,0,0,1,8.43-2c1.48-.21,3.11-.44,5.07-.83.23,0,1.8-.37,3.28-.76a47.92,47.92,0,0,0,8.33-3.09c-5.13,4.42-6.61,8.43-7,11.28-.9,6.47,2.93,13.07,3.44,21.43a15.91,15.91,0,0,1-.9,6.63,19.2,19.2,0,0,1-1.81,3.46c-2.83,4.66-4.07,5.42-6.21,9A17.82,17.82,0,0,0,81.32,109.5Z"/><path class="cls-10" d="M108.39,74.38c.41-.82,1.49-1.27,6.49-1.32,5.53,0,8.6-.08,13,1a29.49,29.49,0,0,1,8.85,3.35,31.61,31.61,0,0,1,8.08,7.26c1.1,1.28,3.58,4.16,3.13,4.67s-3-1.52-8.85-4.65a53.35,53.35,0,0,0-6.25-3.11A34.89,34.89,0,0,0,120.1,79.8c-5.56.09-7.48,1.13-9.62-.49C108.84,78.07,107.69,75.73,108.39,74.38Z"/><path class="cls-13" d="M77.12,115a3.49,3.49,0,0,1,3-1.14,2.87,2.87,0,0,1,1.51.76,2.92,2.92,0,0,1,.8,1.44,3.24,3.24,0,0,0-2.37-1.84A4.29,4.29,0,0,0,77.12,115Z"/><path class="cls-14" d="M107.07,116.75a7.2,7.2,0,0,1-2.54,3.5,2.32,2.32,0,0,1-2.23.08,15.28,15.28,0,0,1-1.82-1.24,12.2,12.2,0,0,0-3.77-1.87,4.79,4.79,0,0,0-3.89,0,4.65,4.65,0,0,0-1.46,1.32A4.74,4.74,0,0,1,89.52,120a4.23,4.23,0,0,1-2.41.14,6.89,6.89,0,0,1-2.14-.9,10.93,10.93,0,0,1-1.79-1.4A8.22,8.22,0,0,1,81.81,116a10.3,10.3,0,0,1-1.14-4.39,11.41,11.41,0,0,1,.68-4.46,16.28,16.28,0,0,1,2.41-3.75,69.75,69.75,0,0,0,4.82-7.1,29.72,29.72,0,0,0,3.52-7.75A20.07,20.07,0,0,0,92,80a19.3,19.3,0,0,1,.6,8.62,30.16,30.16,0,0,1-3.31,8.07A56.67,56.67,0,0,1,84.56,104a15.34,15.34,0,0,0-2.22,3.52,10.53,10.53,0,0,0-.56,4,9.11,9.11,0,0,0,1,3.93,7.28,7.28,0,0,0,1.17,1.62,9.87,9.87,0,0,0,1.6,1.28,4.3,4.3,0,0,0,3.66.72,3.84,3.84,0,0,0,1.48-1.2,5.45,5.45,0,0,1,1.79-1.48,4.63,4.63,0,0,1,2.31-.41,8.35,8.35,0,0,1,2.2.55,13.06,13.06,0,0,1,3.86,2.1,16.16,16.16,0,0,0,1.68,1.3,2,2,0,0,0,1.91,0,4.7,4.7,0,0,0,1.54-1.41A12.15,12.15,0,0,0,107.07,116.75Z"/><path class="cls-14" d="M113.09,118.81a22.86,22.86,0,0,0,3.42,4.49c1.39,1.28,2.68,2.65,4,4,.66.67,1.35,1.33,2,2a14.88,14.88,0,0,1,1.67,2.31,7.56,7.56,0,0,1,1,2.65,7.69,7.69,0,0,1-.09,2.83,7.59,7.59,0,0,0,0-2.81,7.33,7.33,0,0,0-1.1-2.57,14.88,14.88,0,0,0-1.72-2.23c-.64-.68-1.35-1.31-2-2-1.38-1.31-2.77-2.61-4.06-4A17.63,17.63,0,0,1,113.09,118.81Z"/><path class="cls-11" d="M92.82,121.81c.47-.37,1.24-.53,4.69.68a71.72,71.72,0,0,1,8.67,4c2.07,1,3.74,1.75,7.46,3.62,3.42,1.71,4.82,2.48,4.69,3.1s-2.39.86-2.77.88c-3,.15-4.33-1-7.81-2.23A57.15,57.15,0,0,0,98,129.42c-2.11-.3-3.13-.3-4.16-1.2C92,126.52,91.48,122.9,92.82,121.81Z"/><path class="cls-15" d="M78.87,138.92A14.63,14.63,0,0,0,82,140.38a27,27,0,0,0,5.72,1c1.71.13,2.67.07,2.82.51s-.59.77-1.47,2c-1,1.46-.74,2-1.34,2.43-1.32.93-4.17-.61-5.77-2A10.23,10.23,0,0,1,78.87,138.92Z"/><path class="cls-16" d="M165,107.56c-.24.57-.49,1.2-.75,1.88l-.38,1.1c-.46,1.37-.34,1.27-1.55,6.42-2.25,9.62-3.71,15.84-5.05,20.33-.55,1.86-1.08,3.42-1.64,4.81-.12.28-.23.57-.35.87-.55,1.36-1.16,2.82-1.89,4.34A42.21,42.21,0,0,1,146.29,158a41.79,41.79,0,0,1-7.64,6.59,55.62,55.62,0,0,1-7.93,4.37c-12.21,5.71-23.23,5.64-29.62,5.53-2.5,0-4.91-.08-7.23-.17-2.53-.1-5-.26-7.26-.54-.62-.08-1.24-.16-1.84-.26a38.54,38.54,0,0,1-4.85-1.06,24.7,24.7,0,0,1-10.56-5.94q-.42-.39-.81-.81c-5-5.29-6.59-12.16-9.64-25.25-2.49-10.67-3.37-21.39-2.31-21.64h0c.46-.1,1,1.84,4.53,9.85s3.58,7.46,4.18,9.52c1.86,6.3.77,10.32,3,11.26,1,.41,1.65-.14,3.46-.7,5.68-1.76,11.06-.13,13.36.6l.16.06A23.82,23.82,0,0,1,91,152.14c1,.63,1.88,1.28,2.75,1.9l.51.37c4.3,3.19,4.78,4.94,7.13,5,.72,0,1.25-.14,8.48-4,2.76-1.48,3.67-2,4.51-1.57,2,1,.7,6.24,1.92,6.58.94.26,3.06-2.56,4-5.9a14.77,14.77,0,0,0,.35-5.37c-.09-1.26-.11-2.19.67-3,1.32-1.31,2.94-.15,7.27-.88a26.7,26.7,0,0,0,6.93-2.44,37.72,37.72,0,0,0,9-5.23,23.77,23.77,0,0,0,2.41-2.25,43.69,43.69,0,0,0,5.25-7.46l1.15-1.92c2.4-4,3.63-6.09,4.65-9.37.85-2.72.94-4.29,2.4-9.19.12-.38.23-.73.33-1.07,1.22-4,1.94-5.52,3.12-5.7a2.06,2.06,0,0,1,1.22.25,2.91,2.91,0,0,1,1,1C166.91,103.2,166.1,104.85,165,107.56Z"/><path class="cls-13" d="M71.56,82.14A14.67,14.67,0,0,1,78.23,80,15.62,15.62,0,0,1,85.16,81a20.49,20.49,0,0,0-6.91-.72A18.78,18.78,0,0,0,71.56,82.14Z"/><path class="cls-13" d="M73.6,91.1a32.72,32.72,0,0,0,3.56,1.14,26.79,26.79,0,0,0,3.65.73,29,29,0,0,0,3.72.29,36.05,36.05,0,0,0,3.74-.13,22.3,22.3,0,0,1-3.74.41,26.17,26.17,0,0,1-3.76-.21,24.3,24.3,0,0,1-3.69-.82A21.48,21.48,0,0,1,73.6,91.1Z"/><path class="cls-17" d="M82.68,84.06A11.88,11.88,0,0,1,88,86.85a11,11,0,0,1,0,2.22,5.07,5.07,0,0,1-8.28-3.89,4.91,4.91,0,0,1,.18-1.39A10.92,10.92,0,0,1,82.68,84.06Z"/><path class="cls-18" d="M71.42,86a18,18,0,0,1,4-1.82,20.07,20.07,0,0,1,4.4-.88,10.93,10.93,0,0,1,4.49.76,8.66,8.66,0,0,1,2.05,1A4,4,0,0,1,88,86.73a10.17,10.17,0,0,1-2-.87A17.39,17.39,0,0,0,84,85a12.1,12.1,0,0,0-4.13-.69,22.52,22.52,0,0,0-4.28.47A23.26,23.26,0,0,0,71.42,86Z"/><circle class="cls-19" cx="84.94" cy="86.92" r="0.57"/><path class="cls-13" d="M111.56,95.42a22.18,22.18,0,0,0,8.6,4.89,21.75,21.75,0,0,0,4.88.89,26.85,26.85,0,0,0,5-.1,21,21,0,0,1-5,.38,20.51,20.51,0,0,1-5-.83,19.57,19.57,0,0,1-4.6-2.06A18.81,18.81,0,0,1,111.56,95.42Z"/><path class="cls-17" d="M128.65,92.54a5.06,5.06,0,0,1-10.11-.39,5.15,5.15,0,0,1,.26-1.63,22.32,22.32,0,0,1,3.41.2A23,23,0,0,1,128.65,92.54Z"/><circle class="cls-19" cx="124.41" cy="93.55" r="0.57"/><path class="cls-18" d="M110.6,91.79A17.71,17.71,0,0,1,116.45,90a19,19,0,0,1,6.21,0A20,20,0,0,1,128.54,92a19.11,19.11,0,0,1,4.94,3.58,26.4,26.4,0,0,0-5.33-2.69,28.43,28.43,0,0,0-5.72-1.33,33.43,33.43,0,0,0-5.84-.18C114.6,91.42,112.65,91.61,110.6,91.79Z"/><path class="cls-13" d="M111.67,87.88a22.3,22.3,0,0,1,12.47-.7,23.1,23.1,0,0,1,5.9,2.27,22.72,22.72,0,0,1,5,3.77,26,26,0,0,0-5.18-3.52,23.62,23.62,0,0,0-5.84-2.17,24,24,0,0,0-6.2-.61A26,26,0,0,0,111.67,87.88Z"/><g class="cls-20"><path class="cls-21" d="M88,87.84c0,.14,0,.3,0,.44a2.72,2.72,0,0,1,0,.28c0,.17,0,.34,0,.51a19.33,19.33,0,0,1-1,4.21c-.2.59-.41,1.15-.61,1.69-.89,2.42-2,5.28-4.66,7.55a15.11,15.11,0,0,1-15.59,1.86,15.36,15.36,0,0,1-7.28-7.1,14.15,14.15,0,0,1-.8-2c-.54-1.7-.62-3.34-.8-6.63,0-.3,0-.6,0-.88-.18-3.46-.23-5.29.29-6.53,1.43-3.41,6.14-5,10.52-5.42a23,23,0,0,1,2.44-.13q.9,0,1.71.06c3.92.28,9.62,1.83,13,5.27a9.61,9.61,0,0,1,2.47,4,8.52,8.52,0,0,1,.29,1.31c0,.11,0,.22,0,.32h0v.12s0,0,0,0,0,.29,0,.44v.06C88,87.53,88,87.68,88,87.84Z"/><path class="cls-22" d="M89.25,87.83a16.39,16.39,0,0,1-1.48,6.24,36.55,36.55,0,0,1-2.71,5.61,15.26,15.26,0,0,1-2,2.5,13.62,13.62,0,0,1-2.51,2,15.76,15.76,0,0,1-5.93,2.12,16,16,0,0,1-12-3,16.61,16.61,0,0,1-4.19-4.76,22.77,22.77,0,0,1-1.32-2.93,15.4,15.4,0,0,1-.62-3.15c-.19-2.07-.27-4.05-.38-6.09,0-1-.09-2,0-3.12a8.13,8.13,0,0,1,.25-1.7,6.08,6.08,0,0,1,.75-1.63,10.24,10.24,0,0,1,5.36-3.79,21.91,21.91,0,0,1,6.17-1.16A26.81,26.81,0,0,1,80.89,77a16.67,16.67,0,0,1,5.38,3.53,10.38,10.38,0,0,1,2,2.75,8.37,8.37,0,0,1,.61,1.6l.19.83a6.48,6.48,0,0,1,.15.9l-.35-.79h0l.31.3.05.45v.24a1.39,1.39,0,0,1-.12.57l.11-.7,0,.52,0-.14a2.32,2.32,0,0,1,0,.24v.49Zm-2.47,0V87.4a.45.45,0,0,0,0,.11v-.14l0-.34.12-.7a1.14,1.14,0,0,0-.13.52v0l.36.76h0l-.32-.33,0-.46a4.27,4.27,0,0,0-.1-.59l-.14-.65A7,7,0,0,0,86,84.34,9.59,9.59,0,0,0,84.6,82.1a14.5,14.5,0,0,0-4.5-3.33,21.8,21.8,0,0,0-11.33-2.08,19.93,19.93,0,0,0-5.66,1.16,8.76,8.76,0,0,0-4.36,3.06,4.11,4.11,0,0,0-.53,1.1A7,7,0,0,0,58,83.3c-.05.94,0,1.93,0,2.93.09,2,.17,4,.33,6A13.78,13.78,0,0,0,63.66,102a14.43,14.43,0,0,0,10.8,2.92,13.61,13.61,0,0,0,5.4-1.88,11.44,11.44,0,0,0,3.91-4.09,27.8,27.8,0,0,0,2-5.51A19.53,19.53,0,0,0,86.78,87.84Z"/></g><g class="cls-20"><path class="cls-21" d="M104.26,87.12C102,90.09,102,93.6,102,97c0,2.62-.14,8.34,3.41,13,4.75,6.21,14.91,9,22.89,4.88,8.88-4.62,9.75-15.1,9.83-16.4a14.24,14.24,0,0,0-1.32-8.32c-3.5-6.37-12-7.16-15.7-7.5S108.54,81.51,104.26,87.12Z"/><path class="cls-22" d="M105.16,87.81a11,11,0,0,0-2,6.06c-.08,1.14-.1,2.32-.12,3.5a30.39,30.39,0,0,0,.09,3.45,18.05,18.05,0,0,0,1.73,6.47,14.49,14.49,0,0,0,4.24,5.1A18.68,18.68,0,0,0,122,116a16,16,0,0,0,11.46-6.6,19,19,0,0,0,2.81-6.19,22.9,22.9,0,0,0,.65-3.36c.06-.57.09-1.11.11-1.7s0-1.16,0-1.72a11.82,11.82,0,0,0-1.61-6.15,12,12,0,0,0-4.72-4.37c-4-2.15-8.87-2.62-13.51-2.74a20.71,20.71,0,0,0-6.78,1,12.3,12.3,0,0,0-3,1.46A10.14,10.14,0,0,0,105.16,87.81Zm-1.8-1.37a12.34,12.34,0,0,1,6.5-4,25.38,25.38,0,0,1,7.33-.7c1.21,0,2.42.12,3.61.24s2.39.21,3.59.38a26.35,26.35,0,0,1,7.14,1.83A13.14,13.14,0,0,1,137.44,89a12.18,12.18,0,0,1,1.91,7.46,24.81,24.81,0,0,1-4.68,13.86,18,18,0,0,1-12.55,7.18A20.87,20.87,0,0,1,108,113.84a16.62,16.62,0,0,1-5-5.63A19.33,19.33,0,0,1,101,101a35,35,0,0,1-.14-3.68c0-1.18,0-2.39.09-3.62A13.22,13.22,0,0,1,103.36,86.44Z"/></g><path class="cls-22" d="M105.36,88a10.71,10.71,0,0,0-2,5.92c-.08,1.13-.1,2.3-.13,3.49a32.33,32.33,0,0,0,.09,3.42,18.27,18.27,0,0,0,1.69,6.39,14.53,14.53,0,0,0,4.16,5,18.47,18.47,0,0,0,12.73,3.58,15.74,15.74,0,0,0,11.33-6.53,18.14,18.14,0,0,0,2.76-6.16,22.16,22.16,0,0,0,.61-3.33,15.43,15.43,0,0,0,.09-1.67c0-.59,0-1.16,0-1.71a12,12,0,0,0-1.57-6,11.79,11.79,0,0,0-4.58-4.32c-3.91-2.17-8.8-2.68-13.43-2.78a20.39,20.39,0,0,0-6.7,1,12.22,12.22,0,0,0-2.89,1.45A10.12,10.12,0,0,0,105.36,88Zm-2.2-1.69a12.5,12.5,0,0,1,6.64-4.08,25.49,25.49,0,0,1,7.39-.66c1.22,0,2.43.13,3.62.24s2.4.21,3.61.37a27.26,27.26,0,0,1,7.2,1.8,13.38,13.38,0,0,1,6.06,4.89,12.17,12.17,0,0,1,1.94,7.6,25.18,25.18,0,0,1-4.81,14,18.21,18.21,0,0,1-12.68,7.25A21.09,21.09,0,0,1,107.91,114a16.77,16.77,0,0,1-5-5.69,19.36,19.36,0,0,1-2.1-7.26,33.26,33.26,0,0,1-.15-3.71c0-1.19,0-2.39.09-3.64a17.08,17.08,0,0,1,.65-3.81A11.45,11.45,0,0,1,103.16,86.28Z"/><path class="cls-22" d="M89.25,87.83a16.39,16.39,0,0,1-1.48,6.24,36.55,36.55,0,0,1-2.71,5.61,15.26,15.26,0,0,1-2,2.5,13.62,13.62,0,0,1-2.51,2,15.76,15.76,0,0,1-5.93,2.12,16,16,0,0,1-12-3,16.61,16.61,0,0,1-4.19-4.76,22.77,22.77,0,0,1-1.32-2.93,15.4,15.4,0,0,1-.62-3.15c-.19-2.07-.27-4.05-.38-6.09,0-1-.09-2,0-3.12a8.13,8.13,0,0,1,.25-1.7,6.08,6.08,0,0,1,.75-1.63,10.24,10.24,0,0,1,5.36-3.79,21.91,21.91,0,0,1,6.17-1.16A26.81,26.81,0,0,1,80.89,77a16.67,16.67,0,0,1,5.38,3.53,10.38,10.38,0,0,1,2,2.75,8.37,8.37,0,0,1,.61,1.6l.19.83a6.48,6.48,0,0,1,.15.9l-.35-.79h0l.31.3.05.45v.24a1.39,1.39,0,0,1-.12.57l.11-.7,0,.52,0-.14a2.32,2.32,0,0,1,0,.24v.49Zm-2.47,0V87.4a.45.45,0,0,0,0,.11v-.14l0-.34.12-.7a1.14,1.14,0,0,0-.13.52v0l.36.76h0l-.32-.33,0-.46a4.27,4.27,0,0,0-.1-.59l-.14-.65A7,7,0,0,0,86,84.34,9.59,9.59,0,0,0,84.6,82.1a14.5,14.5,0,0,0-4.5-3.33,21.8,21.8,0,0,0-11.33-2.08,19.93,19.93,0,0,0-5.66,1.16,8.76,8.76,0,0,0-4.36,3.06,4.11,4.11,0,0,0-.53,1.1A7,7,0,0,0,58,83.3c-.05.94,0,1.93,0,2.93.09,2,.17,4,.33,6A13.78,13.78,0,0,0,63.66,102a14.43,14.43,0,0,0,10.8,2.92,13.61,13.61,0,0,0,5.4-1.88,11.44,11.44,0,0,0,3.91-4.09,27.8,27.8,0,0,0,2-5.51A19.53,19.53,0,0,0,86.78,87.84Z"/><path class="cls-22" d="M102.5,89.66A14.2,14.2,0,0,0,88,87.55l-.9-2a17,17,0,0,1,8.83-1.72A17.41,17.41,0,0,1,104.53,87Z"/><path class="cls-22" d="M137.87,89.13a130.18,130.18,0,0,1,34.52,12.16l-.84,1.82a126.11,126.11,0,0,0-34.49-8.8Z"/><path class="cls-2" d="M64.63,40.3c-6.46,8.93-6.84,21.94-3.58,23.54,2.14,1,4.17-3.61,12.2-6.4,5.27-1.83,6.59-.35,14.81-2.77,8.42-2.47,9.77-3.78,10.52-5.09,2.1-3.72-1-6.87,1.14-9.75,2.31-3.1,9-3.65,12.48-.82,3.87,3.16,1.22,8.43,4.7,10.91,2.82,2,5.58-.7,15.6-2,8.82-1.14,13.36.1,16,1.13,1.85.72,6.28,2.46,6.65,5.44.29,2.4-2.35,3.07-3.11,6.25-1.06,4.49,2.65,10.18,7,12.85,3.69,2.23,6.48,1.49,7,3.23.73,2.28-3.94,4.07-7,9.63-.81,1.47-3.81,7.38-1.92,13.66S165.45,112,170.48,111a7.11,7.11,0,0,0,4.56-3.91,8.21,8.21,0,0,0,.48-5.07c-2.06-11.28,10.32-54.58-7.59-73.29C156.44,16.74,136,20.08,95,27,81.4,29.26,70.91,31.63,64.63,40.3Z"/><g id="zambet"><path class="cls-19" d="M73.69,128.36a8.15,8.15,0,0,1,4-1.14c3,0,4.27,2,7.8,2.71,2.33.45,2.76-.1,5.46,0,3.1.1,9.2,2.56,11.32,3.48,3.07,1.33,7.73,2.54,14.51,1.78a46.18,46.18,0,0,1-14.5,3.68c-5.8.47-11-.23-19.89-1.51-2.67-.39-4.88-.75-6.39-1a7.15,7.15,0,0,0-2.34-8Z"/><path class="cls-23" d="M96.73,136c.85.06,1.69.21,2.54.32s1.7.12,2.55.25c-.43,0-.86,0-1.29,0s-.85,0-1.28-.07C98.41,136.28,97.56,136.17,96.73,136Z"/><path class="cls-23" d="M76.08,131.78c1.1.23,2.17.56,3.25.81s2.18.47,3.26.76c-1.1-.16-2.2-.41-3.3-.61-.54-.14-1.07-.31-1.61-.46S76.61,132,76.08,131.78Z"/><path class="cls-14" d="M70.23,128.71c1.29-.11,2.87-.24,4.68-.35a17.28,17.28,0,0,1,4.11.09,5.26,5.26,0,0,1,1.15.24c1.06.4,1.52,1.2,3.54,1.83,2.43.77,3.56.22,6.24.38,3.45.2,5.6,1.35,7.73,2.19,8.69,3.38,19.47,2.31,19.51,2s-5.82,0-14.5-2.3c-6.53-1.76-9.84-3.68-14.44-3.28a11.67,11.67,0,0,1-4.22-.18c-2.8-.69-3.1-2.33-5.34-2.52-1.16-.11-1.36.28-4.83,1.16C72.31,128.32,71,128.57,70.23,128.71Z"/><path class="cls-14" d="M117.19,135.05s-1.59.65-4.92,1.53c-5.77,1.52-10.58,2.79-16,2.38-6.33-.48-8.72-2.88-17.25-3.42-.94-.06-3.83-.25-3.9.18s1.37.84,3.12,1.38c5.66,1.75,10.57,3.27,16.47,3.42A47.3,47.3,0,0,0,117.19,135.05Z"/></g><path class="cls-14" d="M166.93,114.46a6.44,6.44,0,0,1,3.44-2.09,4.22,4.22,0,0,1,2.17.07,3.34,3.34,0,0,1,1.86,1.34,6.52,6.52,0,0,1,.81,4.16,10.23,10.23,0,0,1-1.09,4,8.76,8.76,0,0,1-2.67,3.17,6.54,6.54,0,0,1-1.91.94,6.28,6.28,0,0,1-2.09.21,4.73,4.73,0,0,0-1.75.13,4.9,4.9,0,0,0-1.51.87,7.8,7.8,0,0,0-2,3.09l-.35-.11a7.67,7.67,0,0,1,1.81-3.55,4.8,4.8,0,0,1,1.74-1.18,5.46,5.46,0,0,1,2.07-.31c2.43.07,4.39-1.75,5.44-3.87a9.15,9.15,0,0,0,.91-3.46,5.7,5.7,0,0,0-.48-3.34,2.82,2.82,0,0,0-2.81-1.16,6.73,6.73,0,0,0-3.34,1.4Z"/><path class="cls-4" d="M167.33,116.42a2.67,2.67,0,0,1,4.51,1.9c.14,2-1.71,3.43-2.42,4-1.82,1.44-4.4,2.21-4.85,1.57s1.17-1.41,1.9-4C167,118,166.54,117.17,167.33,116.42Z"/></g></g></svg>