<?xml version="1.0" encoding="utf-8"?>
<!-- Generator: Adobe Illustrator 23.0.3, SVG Export Plug-In . SVG Version: 6.00 Build 0)  -->
<svg version="1.1" id="Layer_1" xmlns="http://www.w3.org/2000/svg" xmlns:xlink="http://www.w3.org/1999/xlink" x="0px" y="0px"
	 viewBox="0 0 750 1334" style="enable-background:new 0 0 750 1334;" xml:space="preserve">
<style type="text/css">
	.st0{fill:#F6F5AE;}
	.st1{fill:#F6F862;}
</style>
<g id="stelute">
	<circle class="st0" cx="109.5" cy="59.5" r="4.5"/>
	<circle class="st0" cx="143.5" cy="221.5" r="4.5"/>
	<circle class="st0" cx="40.5" cy="408.5" r="4.5"/>
	<circle class="st0" cx="249.5" cy="383.5" r="4.5"/>
	<circle class="st0" cx="513.5" cy="726.5" r="4.5"/>
	<circle class="st1" cx="635.5" cy="91.5" r="4.5"/>
	<circle class="st0" cx="630.5" cy="576.5" r="4.5"/>
	<circle class="st0" cx="698.5" cy="907.5" r="4.5"/>
	<circle class="st1" cx="634.5" cy="294.5" r="4.5"/>
	<circle class="st1" cx="553.5" cy="874.5" r="4.5"/>
	<circle class="st1" cx="77.5" cy="907.5" r="4.5"/>
	<circle class="st0" cx="499.5" cy="63.5" r="4.5"/>
	<circle class="st1" cx="212.5" cy="310.5" r="4.5"/>
	<circle class="st0" cx="51.5" cy="219.5" r="2.5"/>
	<circle class="st1" cx="480.5" cy="412.5" r="2.5"/>
	<circle class="st1" cx="461.5" cy="876.5" r="2.5"/>
	<circle class="st1" cx="349.5" cy="816.5" r="2.5"/>
	<circle class="st1" cx="580.5" cy="635.5" r="2.5"/>
	<circle class="st0" cx="716.5" cy="470.5" r="2.5"/>
	<circle class="st0" cx="626.5" cy="754.5" r="2.5"/>
	<circle class="st0" cx="556.5" cy="502.5" r="2.5"/>
	<circle class="st0" cx="251.5" cy="733.5" r="2.5"/>
	<circle class="st0" cx="196.5" cy="956.5" r="2.5"/>
	<circle class="st0" cx="711.5" cy="252.5" r="2.5"/>
	<circle class="st0" cx="578.5" cy="983.5" r="2.5"/>
	<circle class="st0" cx="660.5" cy="117.5" r="2.5"/>
	<circle class="st0" cx="487.5" cy="314.5" r="2.5"/>
	<circle class="st0" cx="288.5" cy="995.5" r="2.5"/>
	<circle class="st0" cx="177.5" cy="849.5" r="2.5"/>
	<circle class="st0" cx="292.5" cy="276.5" r="2.5"/>
	<circle class="st0" cx="510.5" cy="246.5" r="2.5"/>
	<circle class="st1" cx="504.5" cy="113.5" r="2.5"/>
	<circle class="st1" cx="118.5" cy="439.5" r="2.5"/>
	<circle class="st1" cx="286.5" cy="129.5" r="2.5"/>
	<circle class="st0" cx="36.5" cy="602.5" r="4.5"/>
	<circle class="st0" cx="667.5" cy="454.5" r="4.5"/>
	<circle class="st0" cx="589.5" cy="404.5" r="4.5"/>
	<circle class="st1" cx="207.5" cy="560.5" r="4.5"/>
	<circle class="st0" cx="139.5" cy="731.5" r="4.5"/>
	<circle class="st0" cx="327.5" cy="95.5" r="4.5"/>
</g>
<g>
</g>
<g>
</g>
<g>
</g>
<g>
</g>
<g>
</g>
<g>
</g>
<g>
</g>
<g>
</g>
<g>
</g>
<g>
</g>
<g>
</g>
</svg>
