<svg xmlns="http://www.w3.org/2000/svg" viewBox="0 0 184.06 252.98"><defs><style>.cls-1{fill:#1d1d44;}.cls-2{fill:#27275b;}.cls-3{fill:#282859;}.cls-4{fill:#5a6084;}.cls-5{fill:#434382;}.cls-6{fill:#b3b3b3;}.cls-7{fill:#a6120d;}.cls-8{fill:#dd1b16;}.cls-9{fill:#f2f2f2;}.cls-10{fill:#c7c7ea;opacity:0.14;}.cls-11{fill:#cbc5ea;}.cls-12{fill:#8f95d3;}</style></defs><title>logo1</title><g id="Layer_2" data-name="Layer 2"><g id="Layer_3" data-name="Layer 3"><path class="cls-1" d="M103.94.94c5.65,1,4.9,21,8.13,37.64.76,3.88,1,11.2,3,11.46,2.28.29,3.64-8.62,7-8.84,3.74-.23,6.37,10.69,12,24,9.1,21.56,16.4,26.57,14,30-5.42,7.75-40.66-20.41-71.54-8.76-12.42,4.69-20.14,14.31-24.27,20.49-5.46,8-7.45,15.45-9.68,15s-2.23-8.19-2.71-21.42c-1.09-29.92-3-43,2.26-55.69,1.52-3.68,3.88-9.41,9.52-13.41C54.69,29.29,56,29.59,59.12,27c4.05-3.29,4-5.45,8.67-11.48S75,6.13,78.73,6c4.24-.15,5.14,4.26,9.57,4.73C95.59,11.5,99.59.21,103.94.94Z"/><path class="cls-2" d="M105,0c3.33.57,4.15,8.07,5.76,22.43.67,6,1,11,1.25,14.74-3.19-2.62-7.55-5.76-9.36-4.5s.15,6.93-1.33,7.57c-1.69.73-4.8-6.41-8.08-6-4,.49-4.53,11.9-7.47,12-2.72.13-2.42-9.6-8.73-14.3-8.53-6.35-24.13,1-24.59-.61-.23-.75,3.53-1.67,7.73-5.26,3.93-3.36,3.85-5.21,8.68-11.48,4.56-5.94,7.24-9.41,10.94-9.55C84.08,4.94,85,9.35,89.4,9.82,96.69,10.59,100.69-.7,105,0Z"/><path class="cls-3" d="M2.05,147.2a149.9,149.9,0,0,1,2-26c2.63-16,5.49-17.09,7-31,1.54-14.23-.94-17.75,3-26,3.19-6.69,5.61-6,11-15,6.71-11.19,7.78-20.27,10-20,1.58.2,1.22,4.87,5,13,2.11,4.55,4.05,8.72,7,9,4,.38,6.47-6.71,9-6,3.15.9.32,12.25,5,15,3.88,2.29,8.35-4,14-3,9.89,1.82,18.45,25.33,11,34-7,8.16-23.41-2.36-31,5-5,4.86-6,17.34,10,50"/><path class="cls-4" d="M25.05,55.2a8.74,8.74,0,0,0-6,2,61.11,61.11,0,0,0,6-8c6.87-10.9,7.88-20.26,10-20,1.58.2,1.22,4.87,5,13,2.11,4.55,4.05,8.72,7,9,3.67.35,6.7-7,9-6a2.78,2.78,0,0,1,1,1c.21.3.81,1.19,1,4a22.76,22.76,0,0,1,0,3,5.42,5.42,0,0,0-3-1,6.39,6.39,0,0,0-3,1,11.85,11.85,0,0,1-7,1c-3.58-.71-3.59-3.94-6-4-3.6-.08-5,7-9,7C28.1,57.19,27.65,55.49,25.05,55.2Z"/><path class="cls-5" d="M173.09,145.67A83,83,0,0,1,160.34,190,87.73,87.73,0,0,1,55.61,224.85a86.06,86.06,0,0,1-48-44.36A82.88,82.88,0,0,1,0,145.67,83.94,83.94,0,0,1,31.27,80.45,86.68,86.68,0,0,1,51.16,68.3c2.52-1.11,5.11-2.11,7.75-3l.37-.13h0a85.78,85.78,0,0,1,8.43-2.27l.13,0L69,62.65a88.46,88.46,0,0,1,15.57-1.71q1,0,2,0l2,0a87.69,87.69,0,0,1,23.53,3.72c2.12.65,4.2,1.36,6.25,2.16A86.92,86.92,0,0,1,144,82.25,83.77,83.77,0,0,1,173.09,145.67Z"/><path class="cls-6" d="M87,85.2,29.89,105.29l9,74.8L87,206.54l48.37-26.81,9-74.79Z"/><path class="cls-7" d="M138.73,109.26,86.84,91.57V200.22l43.49-24.07,8.4-66.89Z"/><path class="cls-8" d="M36.3,109.58,44,176.47l42.81,23.75V91.56l-50.54,18Z"/><path class="cls-9" d="M101.13,149.41l-14.29,6.68h-15l-7.08,17.7L51.55,174,86.84,95.51l14.29,53.9ZM99.75,146,86.94,120.69,76.43,145.61H86.84l12.91.43Z"/><path class="cls-6" d="M86.84,95.51l.1,25.18,11.92,24.94h-12l0,10.44h16.58L111.17,174l12.59.24L86.84,95.51Z"/><path class="cls-10" d="M184.05,219.2c-.31,3-7.92,4.92-12.46,5.28-1,.08-1,0-1.87.08-5.66.54-7.24,3.45-9.67,2.64-2-.67-1.32-2.82-4-4-1.41-.61-2.06-.22-5-1a21.88,21.88,0,0,1-3-1c-2.37-1-7.3-4.43-6.69-9.31a8.75,8.75,0,0,1,7.68-7.17h.47c5,0,8.05,1.63,12.54,2.49,5.26,1,7.91.09,9,2,.62,1.1.11,2,1,3,1.15,1.25,2.93.67,5,1C180.59,213.78,184.27,217,184.05,219.2Z"/><path class="cls-11" d="M161.75,215.77c-.29.53-1,.64-2.52.84a17.42,17.42,0,0,1-8.41-.84,6.18,6.18,0,0,1,0-1.68,16,16,0,0,1,.84-2.52,4.35,4.35,0,0,0-.84-3.37h10.93a6.45,6.45,0,0,0-.84,4.21C161.2,214.06,162.2,215,161.75,215.77Z"/><path class="cls-4" d="M134,208.2c-.84-1.62,1.62-4.51,4.21-7.56,5.17-6.08,9.84-8.52,9.24-10.08s-5.12-.1-5.88-1.69c-1.35-2.82,11.42-10.73,10.08-13.44-.75-1.54-5.18-.11-5.88-1.68s3.76-3.85,7.56-9.25c4.32-6.12,3.88-10.82,5.89-10.92,1.65-.09,2.11,3.12,6.72,11.76,3.17,5.95,5.51,9.17,4.2,10.93-1.08,1.45-3.58.48-4.2,1.68-1.44,2.78,10.79,10.24,9.24,14.29-.76,2-4.57,1.37-5,3.36-.27,1.14.79,2.12,5,6.72,3.55,3.84,4.58,5.06,4.21,5.88s-2.35.86-3.36.84c-8.94-.12-9.55,2.88-17.65,2.53-6-.27-5.32-2-12.61-2.53C138.78,208.56,134.93,209.94,134,208.2Z"/><path class="cls-10" d="M165.78,240.91c-.26,2.54-6.62,4.12-10.42,4.42a11.15,11.15,0,0,1-1.56.06c-2-.08-3.76-.83-9.23-2.1-4.48-1-5.5-1.09-6.56-1.42,0,0-.49-.16-1-.37-1.65-.7-7-2.94-7-6.71,0-3,3.37-5.8,6.43-6h.39c4.18,0,6.74,1.37,10.49,2.09,4.4.84,6.62.07,7.53,1.67.52.92.09,1.7.83,2.51,1,1,2.46.55,4.18.83C162.88,236.38,166,239.05,165.78,240.91Z"/><path class="cls-11" d="M144,234.51c-.2.37-.72.45-1.76.59a13.44,13.44,0,0,1-3.54,0,13,13,0,0,1-2.36-.59,4.58,4.58,0,0,1,0-1.18,12.52,12.52,0,0,1,.59-1.77,3,3,0,0,0-.59-2.36H144a4.51,4.51,0,0,0-.58,3C143.66,233.31,144.36,233.93,144,234.51Z"/><path class="cls-12" d="M122.24,230.38c-.75-1.95,2.54-5.69,5.31-7.66,1.6-1.14,3.06-1.71,2.94-2.35-.2-1.09-4.52-.23-5.3-1.77-1.41-2.8,10.14-10.68,8.84-13-.59-1-3.18.15-4.13-1.17-1.29-1.81,2-6.17,3.54-8.25,2.13-2.85,5.94-8,8.25-7.08,1.82.69.3,4.19,2.94,8.84,2.32,4.09,5.89,5.61,5.31,7.07s-3.65.55-4.13,1.77c-.87,2.21,8.56,6.8,7.66,10-.44,1.57-3,1.8-2.94,2.95s2.37,1,4.71,2.94c.32.27,3.5,2.94,2.95,5.31-.62,2.63-5.51,3.38-6.49,3.53-4.3.66-5.13-1.13-10-1.18-4.59,0-5,1.53-10.61,1.77C128.5,232.26,123.05,232.5,122.24,230.38Z"/><path class="cls-10" d="M16.87,221.29A3,3,0,0,0,18,224.68c1.31.82,2.36-.55,4.51,0,1.91.52,2.08,1.86,3.35,1.7s1.54-1.51,3.3-1.92a4.19,4.19,0,0,1,1.68,0l.54-.09c.91-.2,3.82-.82,4.17-2.73.28-1.5-1.14-3.26-2.67-3.65l-.2,0c-2.12-.4-3.54,0-5.51,0-2.32,0-3.36-.61-4,.12-.35.41-.21.85-.66,1.19s-1.3,0-2.2,0A3.71,3.71,0,0,0,16.87,221.29Z"/><path class="cls-11" d="M29,220.38c-.12.22-.43.27-1.06.35a7.36,7.36,0,0,1-3.53-.35,2.68,2.68,0,0,1,0-.7,6.75,6.75,0,0,1,.36-1.06,1.87,1.87,0,0,0-.36-1.42H29a2.72,2.72,0,0,0-.35,1.77C28.76,219.66,29.18,220,29,220.38Z"/><path class="cls-12" d="M15.93,217.91c-.45-1.17,1.52-3.41,3.18-4.59,1-.68,1.83-1,1.76-1.41-.12-.65-2.71-.14-3.18-1.06-.84-1.68,6.08-6.4,5.3-7.77-.35-.62-1.9.09-2.47-.71-.77-1.08,1.18-3.69,2.12-4.94,1.27-1.7,3.56-4.76,4.94-4.24,1.09.42.18,2.51,1.77,5.3,1.39,2.45,3.52,3.36,3.17,4.24s-2.18.33-2.47,1.06c-.52,1.32,5.13,4.07,4.59,6-.26.94-1.82,1.08-1.76,1.76s1.42.62,2.82,1.77c.19.16,2.1,1.76,1.77,3.18-.37,1.58-3.3,2-3.89,2.12-2.58.39-3.07-.68-6-.71-2.75,0-3,.91-6.36,1.06C19.68,219,16.41,219.18,15.93,217.91Z"/><path class="cls-10" d="M134,248.83c-.23,2.35-6.13,3.8-9.65,4.08a9.56,9.56,0,0,1-1.45.06c-1.82-.07-3.48-.77-8.54-1.94-4.16-1-5.1-1-6.08-1.32,0,0-.46-.15-.91-.34-1.54-.65-6.47-2.73-6.44-6.21,0-2.75,3.12-5.38,6-5.55h.37c3.86,0,6.23,1.26,9.71,1.93,4.08.78,6.13.07,7,1.55.49.85.08,1.57.78,2.32.89,1,2.27.51,3.87.78C131.27,244.63,134.13,247.1,134,248.83Z"/><path class="cls-11" d="M117.68,244.18c-.26.49-1,.59-2.32.77a16.63,16.63,0,0,1-4.65,0,17.46,17.46,0,0,1-3.1-.77,5.64,5.64,0,0,1,0-1.55,14.27,14.27,0,0,1,.78-2.33,4,4,0,0,0-.78-3.1h10.07a6,6,0,0,0-.77,3.88C117.18,242.6,118.1,243.42,117.68,244.18Z"/><path class="cls-4" d="M133.86,238c.78-1.5-1.49-4.17-3.87-7-4.77-5.61-9.08-7.86-8.52-9.3s4.72-.09,5.42-1.55c1.24-2.6-10.53-9.9-9.3-12.4.7-1.42,4.78-.09,5.43-1.55s-3.47-3.54-7-8.52c-4-5.64-3.58-10-5.42-10.07-1.53-.08-2,2.88-6.2,10.85-2.92,5.47-5.08,8.45-3.87,10.07,1,1.33,3.3.44,3.87,1.55,1.33,2.56-10,9.44-8.52,13.17.7,1.83,4.21,1.27,4.65,3.1.24,1-.73,1.95-4.65,6.2-3.27,3.53-4.22,4.66-3.88,5.42s2.17.79,3.1.77c8.24-.11,8.8,2.66,16.27,2.33,5.54-.25,4.9-1.86,11.63-2.33C129.47,238.3,133,239.58,133.86,238Z"/></g></g></svg>