<?xml version="1.0" encoding="utf-8"?>
<!-- Generator: Adobe Illustrator 23.0.3, SVG Export Plug-In . SVG Version: 6.00 Build 0)  -->
<svg version="1.1" id="Layer_1" xmlns="http://www.w3.org/2000/svg" xmlns:xlink="http://www.w3.org/1999/xlink" x="0px" y="0px"
	 viewBox="0 0 750 1334" style="enable-background:new 0 0 750 1334;" xml:space="preserve">
<style type="text/css">
	.st0{fill:#12122B;}
	.st1{fill:#27275B;}
	.st2{fill:#282859;}
	.st3{fill:#5A6084;}
	.st4{fill:#1D1D44;}
	.st5{opacity:0.4;fill:#12122B;}
	.st6{fill:#CBC5EA;}
	.st7{fill:#8F95D3;}
</style>
<g>
	<g>
		<path class="st0" d="M389.9,539.7c5.7,1,4.9,21,8.1,37.6c0.8,3.9,1,11.2,3,11.5c2.3,0.3,3.6-8.6,7-8.8c3.7-0.2,6.4,10.7,12,24
			c9.1,21.6,16.4,26.6,14,30c-5.4,7.7-40.7-20.4-71.5-8.8c-12.4,4.7-20.1,14.3-24.3,20.5c-5.5,8-7.5,15.4-9.7,15
			c-2.2-0.4-2.2-8.2-2.7-21.4c-1.1-29.9-3-43,2.3-55.7c1.5-3.7,3.9-9.4,9.5-13.4c3.1-2.2,4.3-1.9,7.5-4.4c4.1-3.3,4-5.4,8.7-11.5
			c4.6-5.9,7.2-9.4,10.9-9.5c4.2-0.2,5.1,4.3,9.6,4.7C381.5,550.3,385.5,539,389.9,539.7z"/>
		<path class="st1" d="M391,538.8c3.3,0.6,4.1,8.1,5.8,22.4c0.7,6,1,11,1.2,14.7c-3.2-2.6-7.5-5.8-9.4-4.5c-1.9,1.3,0.1,6.9-1.3,7.6
			c-1.7,0.7-4.8-6.4-8.1-6c-4,0.5-4.5,11.9-7.5,12c-2.7,0.1-2.4-9.6-8.7-14.3c-8.5-6.4-24.1,1-24.6-0.6c-0.2-0.8,3.5-1.7,7.7-5.3
			c3.9-3.4,3.9-5.2,8.7-11.5c4.6-5.9,7.2-9.4,10.9-9.5c4.2-0.2,5.1,4.3,9.6,4.7C382.6,549.4,386.6,538.1,391,538.8z"/>
	</g>
	<g>
		<path class="st2" d="M288,686c-0.1-5.9,0.2-15,2-26c2.6-16,5.5-17.1,7-31c1.5-14.2-0.9-17.8,3-26c3.2-6.7,5.6-6,11-15
			c6.7-11.2,7.8-20.3,10-20c1.6,0.2,1.2,4.9,5,13c2.1,4.5,4,8.7,7,9c4,0.4,6.5-6.7,9-6c3.2,0.9,0.3,12.2,5,15c3.9,2.3,8.4-4,14-3
			c9.9,1.8,18.5,25.3,11,34c-7,8.2-23.4-2.4-31,5c-5,4.9-6,17.3,10,50"/>
		<path class="st3" d="M311,594c-2.4-0.3-4.6,0.9-6,2c1.5-1.7,3.7-4.4,6-8c6.9-10.9,7.9-20.3,10-20c1.6,0.2,1.2,4.9,5,13
			c2.1,4.5,4,8.7,7,9c3.7,0.3,6.7-7,9-6c0.4,0.2,0.6,0.5,1,1c0.2,0.3,0.8,1.2,1,4c0,0.7,0.1,1.8,0,3c-0.7-0.5-1.7-1-3-1
			c-1.3,0-2.1,0.6-3,1c-2.5,1.2-5.4,1.3-7,1c-3.6-0.7-3.6-3.9-6-4c-3.6-0.1-5,7-9,7C314.1,596,313.6,594.3,311,594z"/>
	</g>
	<path class="st4" d="M459,684.5c0,16.2-4.7,31.4-12.8,44.3c-15.2,24.3-42.6,40.5-73.8,40.5c-10.9,0-21.3-2-30.9-5.6
		c-21.4-8-38.6-24-48-44.4c-4.9-10.6-7.6-22.4-7.6-34.8c0-26.2,12.2-49.7,31.3-65.2c6-4.9,12.7-9,19.9-12.2c2.5-1.1,5.1-2.1,7.8-3
		c0.1,0,0.2-0.1,0.4-0.1c0,0,0,0,0,0c2.8-0.9,5.6-1.7,8.4-2.3c0,0,0.1,0,0.1,0c0.4-0.1,0.8-0.2,1.1-0.2c5-1,10.2-1.6,15.6-1.7
		c0.7,0,1.3,0,2,0c0.7,0,1.3,0,2,0c8.2,0.2,16.1,1.5,23.5,3.7c2.1,0.6,4.2,1.4,6.3,2.2c3.5,1.4,6.9,2.9,10.1,4.7
		c5.6,3,10.8,6.6,15.5,10.8C447.8,636.6,459,659.2,459,684.5z"/>
	<g>
		<g>
			<path class="st5" d="M470,758c-0.3,3-7.9,4.9-12.5,5.3c-1,0.1-1,0-1.9,0.1c-5.7,0.5-7.2,3.5-9.7,2.6c-2-0.7-1.3-2.8-4-4
				c-1.4-0.6-2.1-0.2-5-1c-1.4-0.4-2.5-0.8-3-1c-2.4-1-7.3-4.4-6.7-9.3c0.5-4,4.4-7,7.7-7.2c0.1,0,0.2,0,0.5,0c5,0,8,1.6,12.5,2.5
				c5.3,1,7.9,0.1,9,2c0.6,1.1,0.1,2,1,3c1.2,1.2,2.9,0.7,5,1C466.5,752.6,470.2,755.8,470,758z"/>
			<g>
				<path class="st6" d="M447.7,754.6c-0.3,0.5-1,0.6-2.5,0.8c-2.6,0.4-4.6,0.1-5,0c-0.9-0.1-2-0.4-3.4-0.8c-0.1-0.4-0.1-1,0-1.7
					c0.2-1.2,0.7-1.7,0.8-2.5c0.2-0.7,0.1-1.8-0.8-3.4c3.6,0,7.3,0,10.9,0c-0.9,1.7-1,3.1-0.8,4.2
					C447.2,752.9,448.1,753.7,447.7,754.6z"/>
				<path class="st3" d="M420,747c-0.8-1.6,1.6-4.5,4.2-7.6c5.2-6.1,9.8-8.5,9.2-10.1c-0.6-1.5-5.1-0.1-5.9-1.7
					c-1.3-2.8,11.4-10.7,10.1-13.4c-0.8-1.5-5.2-0.1-5.9-1.7c-0.7-1.6,3.8-3.8,7.6-9.2c4.3-6.1,3.9-10.8,5.9-10.9
					c1.7-0.1,2.1,3.1,6.7,11.8c3.2,5.9,5.5,9.2,4.2,10.9c-1.1,1.4-3.6,0.5-4.2,1.7c-1.4,2.8,10.8,10.2,9.2,14.3
					c-0.8,2-4.6,1.4-5,3.4c-0.3,1.1,0.8,2.1,5,6.7c3.5,3.8,4.6,5.1,4.2,5.9c-0.4,0.9-2.3,0.9-3.4,0.8c-8.9-0.1-9.5,2.9-17.6,2.5
					c-6-0.3-5.3-2-12.6-2.5C424.7,747.4,420.9,748.7,420,747z"/>
			</g>
		</g>
		<g>
			<path class="st5" d="M451.7,779.7c-0.3,2.5-6.6,4.1-10.4,4.4c-0.4,0-0.9,0.1-1.6,0.1c-2-0.1-3.8-0.8-9.2-2.1
				c-4.5-1-5.5-1.1-6.6-1.4c0,0-0.5-0.2-1-0.4c-1.7-0.7-7-2.9-7-6.7c0-3,3.4-5.8,6.4-6c0.1,0,0.2,0,0.4,0c4.2,0,6.7,1.4,10.5,2.1
				c4.4,0.8,6.6,0.1,7.5,1.7c0.5,0.9,0.1,1.7,0.8,2.5c1,1,2.5,0.6,4.2,0.8C448.8,775.2,451.9,777.8,451.7,779.7z"/>
			<g>
				<path class="st6" d="M430,773.3c-0.2,0.4-0.7,0.4-1.8,0.6c-1.8,0.2-3.2,0-3.5,0c-0.6-0.1-1.4-0.3-2.4-0.6c0-0.3-0.1-0.7,0-1.2
					c0.1-0.9,0.5-1.2,0.6-1.8c0.1-0.5,0.1-1.3-0.6-2.4c2.6,0,5.1,0,7.7,0c-0.6,1.2-0.7,2.2-0.6,2.9
					C429.6,772.1,430.3,772.7,430,773.3z"/>
				<path class="st7" d="M408.2,769.2c-0.7-2,2.5-5.7,5.3-7.7c1.6-1.1,3.1-1.7,2.9-2.4c-0.2-1.1-4.5-0.2-5.3-1.8
					c-1.4-2.8,10.1-10.7,8.8-13c-0.6-1-3.2,0.1-4.1-1.2c-1.3-1.8,2-6.2,3.5-8.2c2.1-2.8,5.9-7.9,8.2-7.1c1.8,0.7,0.3,4.2,2.9,8.8
					c2.3,4.1,5.9,5.6,5.3,7.1c-0.5,1.3-3.6,0.5-4.1,1.8c-0.9,2.2,8.6,6.8,7.7,10c-0.4,1.6-3,1.8-2.9,2.9c0.1,1.1,2.4,1,4.7,2.9
					c0.3,0.3,3.5,2.9,2.9,5.3c-0.6,2.6-5.5,3.4-6.5,3.5c-4.3,0.7-5.1-1.1-10-1.2c-4.6,0-5,1.5-10.6,1.8
					C414.5,771.1,409,771.3,408.2,769.2z"/>
			</g>
		</g>
		<g>
			<path class="st5" d="M302.8,760.1c-0.4,1.2,0.1,2.7,1.1,3.4c1.3,0.8,2.4-0.5,4.5,0c1.9,0.5,2.1,1.9,3.4,1.7
				c1.2-0.2,1.5-1.5,3.3-1.9c0.7-0.2,1.3-0.1,1.7,0c0,0,0.3,0,0.5-0.1c0.9-0.2,3.8-0.8,4.2-2.7c0.3-1.5-1.1-3.3-2.7-3.7
				c0,0-0.1,0-0.2,0c-2.1-0.4-3.5,0-5.5,0c-2.3,0-3.4-0.6-4,0.1c-0.4,0.4-0.2,0.9-0.7,1.2c-0.6,0.4-1.3,0-2.2,0
				C305,758.1,303.3,758.8,302.8,760.1z"/>
			<g>
				<path class="st6" d="M314.9,759.2c-0.1,0.2-0.4,0.3-1.1,0.4c-1.1,0.1-1.9,0-2.1,0c-0.4-0.1-0.8-0.2-1.4-0.4c0-0.2,0-0.4,0-0.7
					c0.1-0.5,0.3-0.7,0.4-1.1c0.1-0.3,0.1-0.8-0.4-1.4c1.5,0,3.1,0,4.6,0c-0.4,0.7-0.4,1.3-0.4,1.8
					C314.7,758.5,315.1,758.8,314.9,759.2z"/>
				<path class="st7" d="M301.9,756.7c-0.4-1.2,1.5-3.4,3.2-4.6c1-0.7,1.8-1,1.8-1.4c-0.1-0.7-2.7-0.1-3.2-1.1
					c-0.8-1.7,6.1-6.4,5.3-7.8c-0.4-0.6-1.9,0.1-2.5-0.7c-0.8-1.1,1.2-3.7,2.1-4.9c1.3-1.7,3.6-4.8,4.9-4.2c1.1,0.4,0.2,2.5,1.8,5.3
					c1.4,2.4,3.5,3.4,3.2,4.2c-0.3,0.8-2.2,0.3-2.5,1.1c-0.5,1.3,5.1,4.1,4.6,6c-0.3,0.9-1.8,1.1-1.8,1.8c0.1,0.6,1.4,0.6,2.8,1.8
					c0.2,0.2,2.1,1.8,1.8,3.2c-0.4,1.6-3.3,2-3.9,2.1c-2.6,0.4-3.1-0.7-6-0.7c-2.7,0-3,0.9-6.4,1.1
					C305.6,757.8,302.4,758,301.9,756.7z"/>
			</g>
		</g>
		<g>
			<path class="st5" d="M419.9,787.6c-0.2,2.4-6.1,3.8-9.6,4.1c-0.4,0-0.8,0.1-1.5,0.1c-1.8-0.1-3.5-0.8-8.5-1.9
				c-4.2-1-5.1-1-6.1-1.3c0,0-0.5-0.2-0.9-0.3c-1.5-0.6-6.5-2.7-6.4-6.2c0-2.7,3.1-5.4,6-5.6c0.1,0,0.2,0,0.4,0
				c3.9,0,6.2,1.3,9.7,1.9c4.1,0.8,6.1,0.1,7,1.5c0.5,0.9,0.1,1.6,0.8,2.3c0.9,1,2.3,0.5,3.9,0.8
				C417.2,783.4,420.1,785.9,419.9,787.6z"/>
			<g>
				<path class="st6" d="M403.6,783c-0.3,0.5-1,0.6-2.3,0.8c-2.4,0.3-4.2,0.1-4.6,0c-0.8-0.1-1.9-0.3-3.1-0.8
					c-0.1-0.4-0.1-0.9,0-1.5c0.2-1.1,0.6-1.6,0.8-2.3c0.2-0.7,0.1-1.7-0.8-3.1c3.4,0,6.7,0,10.1,0c-0.8,1.6-1,2.9-0.8,3.9
					C403.1,781.4,404,782.2,403.6,783z"/>
				<path class="st3" d="M419.8,776.8c0.8-1.5-1.5-4.2-3.9-7c-4.8-5.6-9.1-7.9-8.5-9.3c0.5-1.4,4.7-0.1,5.4-1.5
					c1.2-2.6-10.5-9.9-9.3-12.4c0.7-1.4,4.8-0.1,5.4-1.5c0.7-1.5-3.5-3.5-7-8.5c-4-5.6-3.6-10-5.4-10.1c-1.5-0.1-1.9,2.9-6.2,10.8
					c-2.9,5.5-5.1,8.5-3.9,10.1c1,1.3,3.3,0.4,3.9,1.5c1.3,2.6-10,9.4-8.5,13.2c0.7,1.8,4.2,1.3,4.6,3.1c0.2,1-0.7,2-4.6,6.2
					c-3.3,3.5-4.2,4.7-3.9,5.4c0.4,0.8,2.2,0.8,3.1,0.8c8.2-0.1,8.8,2.7,16.3,2.3c5.5-0.2,4.9-1.9,11.6-2.3
					C415.4,777.1,419,778.4,419.8,776.8z"/>
			</g>
		</g>
	</g>
</g>
<g>
</g>
<g>
</g>
<g>
</g>
<g>
</g>
<g>
</g>
<g>
</g>
<g>
</g>
<g>
</g>
<g>
</g>
<g>
</g>
<g>
</g>
</svg>
