<svg xmlns="http://www.w3.org/2000/svg" xmlns:xlink="http://www.w3.org/1999/xlink" viewBox="0 0 341.6 252.98"><defs><style>.cls-1{fill:none;}.cls-2{fill:#1d1d44;}.cls-3{fill:#27275b;}.cls-4{fill:#282859;}.cls-5{fill:#5a6084;}.cls-6{fill:#434382;}.cls-7{clip-path:url(#clip-path);}.cls-8{fill:#c7c7ea;opacity:0.14;}.cls-9{fill:#cbc5ea;}.cls-10{fill:#8f95d3;}</style><clipPath id="clip-path"><circle class="cls-1" cx="171.02" cy="145.67" r="61"/></clipPath></defs><title>logo3</title><g id="Layer_2" data-name="Layer 2"><g id="Layer_3" data-name="Layer 3"><path class="cls-2" d="M188.41.94c5.66,1,4.9,21,8.14,37.64.75,3.88,1,11.2,3,11.46,2.28.29,3.65-8.62,7-8.84,3.75-.23,6.38,10.69,12,24,9.1,21.56,16.41,26.57,14,30C227.1,103,191.87,74.79,161,86.44c-12.42,4.69-20.15,14.31-24.28,20.49-5.46,8-7.45,15.45-9.67,15s-2.23-8.19-2.71-21.42c-1.1-29.92-3-43,2.25-55.69,1.52-3.68,3.88-9.41,9.52-13.41,3.07-2.17,4.33-1.87,7.49-4.43,4.06-3.29,4-5.45,8.68-11.48S159.51,6.13,163.21,6c4.24-.15,5.13,4.26,9.56,4.73C180.06,11.5,184.06.21,188.41.94Z"/><path class="cls-3" d="M189.52,0c3.33.57,4.14,8.07,5.76,22.43.67,6,1,11,1.24,14.74-3.18-2.62-7.54-5.76-9.35-4.5s.15,6.93-1.33,7.57c-1.7.73-4.8-6.41-8.09-6-4,.49-4.53,11.9-7.47,12-2.72.13-2.42-9.6-8.72-14.3-8.54-6.35-24.13,1-24.6-.61-.22-.75,3.54-1.67,7.73-5.26,3.93-3.36,3.85-5.21,8.68-11.48,4.57-5.94,7.24-9.41,10.94-9.55,4.24-.15,5.14,4.26,9.56,4.73C181.17,10.59,185.17-.7,189.52,0Z"/><path class="cls-4" d="M86.52,147.2a150.92,150.92,0,0,1,2-26c2.64-16,5.49-17.09,7-31,1.55-14.23-.94-17.75,3-26,3.2-6.69,5.61-6,11-15,6.71-11.19,7.78-20.27,10-20,1.59.2,1.23,4.87,5,13,2.11,4.55,4,8.72,7,9,4,.38,6.47-6.71,9-6,3.16.9.33,12.25,5,15,3.88,2.29,8.36-4,14-3,9.9,1.82,18.46,25.33,11,34-7,8.16-23.4-2.36-31,5-5,4.86-6,17.34,10,50"/><path class="cls-5" d="M109.52,55.2a8.78,8.78,0,0,0-6,2,60.21,60.21,0,0,0,6-8c6.87-10.9,7.88-20.26,10-20,1.59.2,1.23,4.87,5,13,2.11,4.55,4,8.72,7,9,3.67.35,6.7-7,9-6a2.71,2.71,0,0,1,1,1c.21.3.81,1.19,1,4a22.76,22.76,0,0,1,0,3,5.39,5.39,0,0,0-3-1,6.39,6.39,0,0,0-3,1,11.84,11.84,0,0,1-7,1c-3.58-.71-3.58-3.94-6-4-3.6-.08-5,7-9,7C112.57,57.19,112.12,55.49,109.52,55.2Z"/><path class="cls-6" d="M257.57,145.67A83,83,0,0,1,244.82,190,86.88,86.88,0,0,1,171,230.44a87.78,87.78,0,0,1-30.94-5.59,86.09,86.09,0,0,1-48-44.36,83,83,0,0,1-7.62-34.82,83.92,83.92,0,0,1,31.28-65.22A86.61,86.61,0,0,1,135.63,68.3c2.52-1.11,5.11-2.11,7.75-3l.37-.13h0a84.3,84.3,0,0,1,8.43-2.27.61.61,0,0,1,.13,0l1.14-.25A88.56,88.56,0,0,1,169,60.94l2,0c.67,0,1.35,0,2,0a87.62,87.62,0,0,1,23.52,3.72c2.12.65,4.21,1.36,6.25,2.16a87.1,87.1,0,0,1,25.62,15.43A83.81,83.81,0,0,1,257.57,145.67Z"/><g class="cls-7"><image width="770" height="320" transform="translate(0 74.91) scale(0.44)" xlink:href="C:%5CUsers%5Calexandra%20stoica%5CDesktop%5CWhatsApp%20Image%202020-06-30%20at%2018.29.37.jpeg"/></g><path class="cls-8" d="M268.52,219.2c-.3,3-7.91,4.92-12.45,5.28-1,.08-1,0-1.87.08-5.66.54-7.25,3.45-9.68,2.64-2-.67-1.32-2.82-4-4-1.41-.61-2.06-.22-5-1a21.88,21.88,0,0,1-3-1c-2.36-1-7.29-4.43-6.69-9.31a8.76,8.76,0,0,1,7.69-7.17H234c5,0,8,1.63,12.53,2.49,5.27,1,7.92.09,9,2,.63,1.1.11,2,1,3,1.16,1.25,2.94.67,5,1C265.06,213.78,268.75,217,268.52,219.2Z"/><path class="cls-9" d="M246.22,215.77c-.29.53-1,.64-2.52.84a17.4,17.4,0,0,1-8.4-.84,5.8,5.8,0,0,1,0-1.68,15,15,0,0,1,.84-2.52,4.35,4.35,0,0,0-.84-3.37h10.92a6.51,6.51,0,0,0-.84,4.21C245.67,214.06,246.67,215,246.22,215.77Z"/><path class="cls-5" d="M218.49,208.2c-.85-1.62,1.61-4.51,4.2-7.56,5.17-6.08,9.85-8.52,9.25-10.08s-5.13-.1-5.89-1.69c-1.35-2.82,11.42-10.73,10.09-13.44-.76-1.54-5.19-.11-5.88-1.68s3.75-3.85,7.56-9.25c4.31-6.12,3.88-10.82,5.88-10.92,1.66-.09,2.12,3.12,6.73,11.76,3.17,5.95,5.51,9.17,4.2,10.93-1.09,1.45-3.58.48-4.2,1.68-1.45,2.78,10.79,10.24,9.24,14.29-.76,2-4.57,1.37-5,3.36-.27,1.14.78,2.12,5,6.72,3.55,3.84,4.57,5.06,4.2,5.88s-2.35.86-3.36.84c-8.94-.12-9.54,2.88-17.65,2.53-6-.27-5.31-2-12.6-2.53C223.25,208.56,219.4,209.94,218.49,208.2Z"/><path class="cls-8" d="M250.25,240.91c-.25,2.54-6.62,4.12-10.41,4.42a11.3,11.3,0,0,1-1.57.06c-2-.08-3.76-.83-9.23-2.1-4.48-1-5.5-1.09-6.55-1.42,0,0-.5-.16-1-.37-1.66-.7-7-2.94-6.95-6.71,0-3,3.37-5.8,6.43-6h.39c4.17,0,6.73,1.37,10.48,2.09,4.41.84,6.62.07,7.53,1.67.52.92.09,1.7.84,2.51,1,1,2.45.55,4.18.83C247.36,236.38,250.44,239.05,250.25,240.91Z"/><path class="cls-9" d="M228.52,234.51c-.2.37-.73.45-1.77.59a13.33,13.33,0,0,1-3.53,0,13,13,0,0,1-2.36-.59,4.17,4.17,0,0,1,0-1.18,11.35,11.35,0,0,1,.59-1.77,3,3,0,0,0-.59-2.36h7.66a4.53,4.53,0,0,0-.59,3C228.13,233.31,228.83,233.93,228.52,234.51Z"/><path class="cls-10" d="M206.72,230.38c-.75-1.95,2.53-5.69,5.3-7.66,1.6-1.14,3.06-1.71,2.95-2.35-.2-1.09-4.53-.23-5.31-1.77-1.41-2.8,10.15-10.68,8.84-13-.59-1-3.18.15-4.12-1.17-1.29-1.81,2-6.17,3.53-8.25,2.13-2.85,6-8,8.25-7.08,1.82.69.3,4.19,3,8.84,2.32,4.09,5.88,5.61,5.3,7.07s-3.64.55-4.12,1.77c-.87,2.21,8.56,6.8,7.66,10-.44,1.57-3,1.8-2.95,2.95s2.38,1,4.71,2.94c.32.27,3.51,2.94,2.95,5.31-.62,2.63-5.5,3.38-6.48,3.53-4.31.66-5.13-1.13-10-1.18-4.58,0-5,1.53-10.6,1.77C213,232.26,207.53,232.5,206.72,230.38Z"/><path class="cls-8" d="M101.34,221.29a3,3,0,0,0,1.12,3.39c1.31.82,2.36-.55,4.52,0,1.9.52,2.08,1.86,3.35,1.7s1.54-1.51,3.29-1.92a4.24,4.24,0,0,1,1.69,0l.54-.09c.9-.2,3.82-.82,4.17-2.73.27-1.5-1.15-3.26-2.68-3.65l-.2,0c-2.11-.4-3.54,0-5.51,0-2.31,0-3.36-.61-4,.12-.36.41-.21.85-.67,1.19s-1.3,0-2.2,0A3.72,3.72,0,0,0,101.34,221.29Z"/><path class="cls-9" d="M113.47,220.38c-.12.22-.44.27-1.06.35a7.48,7.48,0,0,1-2.12,0,7.14,7.14,0,0,1-1.41-.35,2,2,0,0,1,0-.7,5.94,5.94,0,0,1,.35-1.06,1.85,1.85,0,0,0-.35-1.42h4.59a2.74,2.74,0,0,0-.36,1.77C113.24,219.66,113.66,220,113.47,220.38Z"/><path class="cls-10" d="M100.4,217.91c-.44-1.17,1.52-3.41,3.18-4.59,1-.68,1.84-1,1.77-1.41-.12-.65-2.71-.14-3.18-1.06-.85-1.68,6.08-6.4,5.29-7.77-.35-.62-1.9.09-2.47-.71-.77-1.08,1.19-3.69,2.12-4.94,1.28-1.7,3.56-4.76,4.94-4.24,1.09.42.18,2.51,1.77,5.3,1.39,2.45,3.53,3.36,3.18,4.24s-2.19.33-2.47,1.06c-.52,1.32,5.13,4.07,4.59,6-.27.94-1.83,1.08-1.77,1.76s1.43.62,2.83,1.77c.19.16,2.09,1.76,1.76,3.18-.37,1.58-3.3,2-3.88,2.12-2.58.39-3.08-.68-6-.71-2.74,0-3,.91-6.35,1.06C104.15,219,100.89,219.18,100.4,217.91Z"/><path class="cls-8" d="M218.43,248.83c-.24,2.35-6.14,3.8-9.65,4.08a9.63,9.63,0,0,1-1.45.06c-1.83-.07-3.48-.77-8.55-1.94-4.15-1-5.1-1-6.07-1.32,0,0-.46-.15-.92-.34-1.53-.65-6.47-2.73-6.44-6.21,0-2.75,3.12-5.38,6-5.55h.36c3.86,0,6.24,1.26,9.71,1.93,4.08.78,6.13.07,7,1.55.48.85.08,1.57.77,2.32.9,1,2.27.51,3.87.78C215.75,244.63,218.6,247.1,218.43,248.83Z"/><path class="cls-9" d="M202.16,244.18c-.27.49-1,.59-2.33.77a16.65,16.65,0,0,1-4.65,0,17.18,17.18,0,0,1-3.09-.77,4.94,4.94,0,0,1,0-1.55,15.43,15.43,0,0,1,.77-2.33,4,4,0,0,0-.77-3.1h10.07a6,6,0,0,0-.78,3.88C201.65,242.6,202.57,243.42,202.16,244.18Z"/><path class="cls-5" d="M218.34,238c.78-1.5-1.49-4.17-3.88-7-4.76-5.61-9.08-7.86-8.52-9.3s4.73-.09,5.42-1.55c1.25-2.6-10.52-9.9-9.29-12.4.69-1.42,4.78-.09,5.42-1.55s-3.46-3.54-7-8.52c-4-5.64-3.58-10-5.43-10.07-1.52-.08-1.94,2.88-6.19,10.85-2.93,5.47-5.09,8.45-3.88,10.07,1,1.33,3.3.44,3.88,1.55,1.33,2.56-10,9.44-8.53,13.17.71,1.83,4.22,1.27,4.65,3.1.25,1-.72,1.95-4.65,6.2-3.27,3.53-4.22,4.66-3.87,5.42s2.17.79,3.1.77c8.24-.11,8.8,2.66,16.27,2.33,5.54-.25,4.9-1.86,11.62-2.33C213.94,238.3,217.5,239.58,218.34,238Z"/></g></g></svg>