<svg xmlns="http://www.w3.org/2000/svg" viewBox="0 0 1143 372.04"><defs><style>.cls-1{fill:#1d1d44;}.cls-2{fill:#27275b;}.cls-3{fill:#232351;}.cls-4{fill:#282859;}.cls-5{fill:#49498c;}.cls-6{fill:#434382;}.cls-7{fill:#12122b;opacity:0.4;}.cls-8{fill:#5a6084;}.cls-9{fill:#8f95d3;}.cls-10{fill:#cbc5ea;}.cls-11{fill:#3e445b;}</style></defs><title>Asset 1</title><g id="Layer_2" data-name="Layer 2"><g id="Layer_1-2" data-name="Layer 1"><path class="cls-1" d="M236.3,48c-11.2.67-14,39.83-23.75,71.56C189.32,194.72,128.1,222.29,137,237c8.71,14.42,57.85-27.6,134.69-16.9,38.66,5.39,83.45,23.69,96.54,6.22,6.76-9-2.48-18.38-20.82-79.89-2.29-7.66-5.62-19.18-15.72-28.11-5.5-4.86-8-4.54-13.63-10.2-7.21-7.25-6.71-11.44-14.48-24.18C296,71.48,291.47,64.14,284.3,63.1c-8.23-1.19-10.89,7.21-19.61,7.19C250.33,70.26,244.93,47.44,236.3,48Z"/><path class="cls-2" d="M236.3,46c-5.34.32-7.39,10.23-15.93,42.44-3.27,12.34-6,22.45-7.82,29.12,10.79-6.89,18.58-10.08,21.45-7.47,3.48,3.15-1.73,13.45,1,15,3.14,1.77,10.69-11.47,17-10,7.76,1.8,6.31,24.11,12,25,5.27.81,6.74-18.19,20-26,17.94-10.58,46.76,7,48,4,.59-1.42-6.53-4-13.94-11.88-6.94-7.36-6.4-11-14.48-24.18C296,69.48,291.47,62.14,284.3,61.1c-8.23-1.19-10.89,7.21-19.61,7.19C250.33,68.26,244.93,45.44,236.3,46Z"/><path class="cls-3" d="M272,336C343.9,123.18,387.28,86.21,413,89c21.19,2.32,38.09,41.16,72,118a1157.05,1157.05,0,0,1,48,129Z"/><path class="cls-1" d="M884,23.82c9.47.7,11.45,19.67,28,47.22,9.26,15.4,15.93,26.18,26,27,11.89.95,17.91-12.86,26-10,7.72,2.72,4.9,16.23,15,34,6.82,12,11.64,10.5,18,21,7.84,12.92,5.78,22.39,8,41,4.46,37.37,18.49,47.19,13,56s-27.12,11.72-97-12l-149,8c-7.52-52.77-.23-90.56,7-114,1.52-4.93,12.54-39.94,23-39,7.09.63,9.3,17.36,14,17,8.92-.69,2.7-61.16,25-70,7.38-2.93,13.51,6.28,26,3C877.25,30.34,878.21,23.38,884,23.82Z"/><path class="cls-4" d="M523,310c3.56-11.84,74-241.28,143-236,10.23.78,25.26,7.09,37,17,30.89,26.07,31.8,71,33,90,2.68,42.51,16.12,103.52,64,184Z"/><path class="cls-1" d="M416,319C471.6,65.09,498-1.77,511,0c5.47.76,9.65,13.8,31,28,13.59,9,25,12.45,29,14,38,14.63,51,106.06,56,133,8.29,45.14,30.64,108.64,95,182Z"/><path class="cls-2" d="M502,84c-2.59-.22-1.37-12.83-8-16-5.88-2.82-12.73,4.29-15.47,1.82-2.35-2.12,1.28-8.65,6.47-21.82,4.39-11.14,5.33-15.53,7.76-21.68,1.41-3.57,2.62-6,3.24-7.32C501.22,8,505.12-.08,510,0a6.89,6.89,0,0,1,3,1c2.72,1.32,4,3.21,7,7,1.31,1.68,2.68,3.32,4,5,4.62,5.88,9.83,9.43,18,15a72.94,72.94,0,0,0,8,5c3.24,1.69,5.25,2.36,12,5,6,2.34,9,3.51,10,4a43.08,43.08,0,0,1,14,11c-6.58-.41-16.12.11-24,6-8.41,6.28-8.23,13.68-14,15-11.21,2.55-21.28-23.26-31-21S505.93,84.36,502,84Z"/><path class="cls-5" d="M704.07,371H0a236.45,236.45,0,0,1,33-66c34.3-47.92,78.2-70.91,101-80.81,35.53-12.16,86.14-25.79,148-28.19,27-1,83.81-2.8,153.2,15h0A482.23,482.23,0,0,1,545,254C583.29,274.74,665.23,325.66,704.07,371Z"/><path class="cls-6" d="M891,174c53.72,15.76,95.08,28.3,141,62,62.07,45.54,94.87,102.12,111,136l-897.08-1A614.74,614.74,0,0,1,435.2,211h0c48.81-26.9,114.56-54,194.86-64.56C742.92,131.57,830.51,156.29,891,174Z"/><path class="cls-7" d="M539,351c-1.48,2.14-5,2.06-7,2-10.38-.36-15.58-.54-23-2-13.39-2.64-15.36,2.06-29,1-11.73-.92-16.9-4.91-31-11-28.74-12.43-52.35-15.34-52-17,.51-2.44,51.48,3.14,58.45-5.32.7-.84,4.49-6.14,8.94-5.53l.46.08c3.83.77,5.74,1.21,11.81,4.88,8.52,5.16,27.57-13.95,38.34-8.11,2,1.08.67,1.37,6,9,7.2,10.3,12.58,14,17,24C539.44,346.29,540.3,349.14,539,351Z"/><path class="cls-1" d="M497,257q-13.41,34.51-26.83,69A83.66,83.66,0,0,0,486,323c5.39-1.61,7.83-3,14-5a125.36,125.36,0,0,1,15-4c-3.09-7.81-6.13-16.15-9-25C502.36,277.82,499.41,267.11,497,257Z"/><path class="cls-8" d="M497,257c.94,5.14.85,10.32,1,15.48s.07,10.34.07,15.52-.09,10.34-.15,15.51l-.11,7.75c-.06,2.59,0,5.18-.25,7.75a.56.56,0,0,1-1.12,0h0c-.14-2.59,0-5.17,0-7.75l.19-7.74c.09-5.17.31-10.33.26-15.49s-.28-10.33-.38-15.49S496.24,262.23,497,257Z"/><path class="cls-9" d="M496.68,257c1.09,1.13-.27,4.08-.68,5-3.77,8.36-5.43,17.55-9,26-6.86,16.22-6.74,17-11,26-2.32,4.88-4.4,9-6,12a40.87,40.87,0,0,1-16,1c-4.54-.56-13.8-1-33-1-6.28-.28-11.4-.17-15,0-5.47.24-9.14.69-10-1s1.2-4,2-5c2.46-3.13,5.64-9.42,12-22,5.76-11.42,11.24-31.1,12-37a6.07,6.07,0,0,1,1.87-4c1.77-1.47,4.29-1.11,5.13-1,5,.64,17.34.76,42,1,14.25.13,21.37.2,22,0S495.77,256.09,496.68,257Z"/><path class="cls-7" d="M173,234c-.32,1.5,3.42,3.92,7,5,3.31,1,4.76.31,13.13-.09,5.5-.27,6.71-.12,8-.28,0,0,.62-.09,1.24-.23,2.1-.47,8.84-2,9.61-6.4.6-3.5-2.73-7.55-6.29-8.43l-.46-.09c-1.29-.19-3.79.13-12.36,3.7-6.24,2.6-5.89,2.86-8.89,3.82C177.18,233.22,173.31,232.58,173,234Z"/><path class="cls-10" d="M204.85,232.91c-.18.34-.67.41-1.62.54a11.21,11.21,0,0,1-5.41-.54,3.55,3.55,0,0,1,0-1.09,10.14,10.14,0,0,1,.54-1.62,2.78,2.78,0,0,0-.54-2.16h7a4.17,4.17,0,0,0-.54,2.7C204.5,231.81,205.14,232.38,204.85,232.91Z"/><path class="cls-9" d="M185.91,228.58c-.55-1.05,1-2.91,2.7-4.87,3.33-3.92,6.35-5.49,6-6.5s-3.3-.06-3.79-1.08c-.87-1.82,7.35-6.92,6.49-8.66-.45-.93-3,.09-3.78-1.09-1-1.34,1.36-4,3.24-7.58,3.8-7.14,3-12.41,4.34-12.45,1.5,0,.69,6.55,5.41,14.62,1.47,2.52,3.74,5.65,2.7,7-.69.93-2.3.31-2.7,1.08-.93,1.79,7,6.6,6,9.2-.53,1.39-3.23,1.26-3.25,2.17s2.8,1,5.42,3.25c1.65,1.41,3.32,3.76,2.7,4.87-.46.82-2,.54-4.33.54-6.11,0-6.43,1.84-11.37,1.62-3.86-.17-3.42-1.29-8.11-1.62C189,228.8,186.49,229.7,185.91,228.58Z"/><path class="cls-7" d="M293.31,239.64c-.05,1.54,4.06,3.26,7.78,3.67,3.43.39,4.73-.54,12.9-2.43,5.36-1.24,6.58-1.31,7.84-1.7,0,0,.59-.2,1.18-.45,2-.83,8.35-3.51,8.32-8,0-3.55-4-6.94-7.69-7.17h-.47c-1.31.05-3.71.81-11.51,5.85-5.67,3.67-5.29,3.86-8.06,5.34C297.28,238.1,293.35,238.15,293.31,239.64Z"/><path class="cls-10" d="M328.05,232.7c-.18.33-.64.4-1.56.52a11.17,11.17,0,0,1-3.11,0,11.29,11.29,0,0,1-2.07-.52,3.23,3.23,0,0,1,0-1,10.8,10.8,0,0,1,.51-1.55,2.65,2.65,0,0,0-.51-2.07h6.74a4,4,0,0,0-.52,2.59C327.71,231.65,328.32,232.2,328.05,232.7Z"/><path class="cls-9" d="M309.9,228.55c-.52-1,1-2.78,2.59-4.66,3.19-3.75,6.08-5.26,5.71-6.22s-3.17-.06-3.63-1c-.83-1.74,7-6.62,6.22-8.29-.44-.89-2.83.08-3.63-1-.91-1.29,1.31-3.86,3.11-7.26,3.64-6.84,2.87-11.88,4.16-11.92s.66,6.27,5.17,14c1.41,2.41,3.59,5.4,2.59,6.74-.67.89-2.21.29-2.59,1-.89,1.72,6.66,6.32,5.7,8.81-.51,1.33-3.09,1.21-3.11,2.08s2.68,1,5.19,3.11c1.58,1.35,3.18,3.6,2.59,4.66-.44.79-1.88.53-4.15.52-5.86,0-6.16,1.76-10.89,1.56-3.7-.17-3.27-1.24-7.77-1.56C312.84,228.77,310.46,229.63,309.9,228.55Z"/><path class="cls-7" d="M84.15,306.63c-.49,1.45,2.93,4.3,6.36,5.8,3.17,1.38,4.69.87,13,1.47,5.48.39,6.67.68,8,.68,0,0,.63,0,1.26-.08,2.14-.21,9-.9,10.31-5.21,1-3.4-1.82-7.82-5.24-9.11l-.45-.15c-1.27-.34-3.78-.32-12.72,2.2-6.5,1.84-6.19,2.13-9.28,2.73C88.4,306.32,84.63,305.22,84.15,306.63Z"/><path class="cls-10" d="M116.69,306.57c-.21.39-.76.47-1.85.62a14.08,14.08,0,0,1-3.69,0,13.51,13.51,0,0,1-2.46-.62,4.52,4.52,0,0,1,0-1.23,11.46,11.46,0,0,1,.62-1.84,3.18,3.18,0,0,0-.62-2.46h8a4.72,4.72,0,0,0-.62,3.07C116.29,305.32,117,306,116.69,306.57Z"/><path class="cls-9" d="M93.93,302.27c-.78-2,2.64-5.94,5.54-8,1.67-1.19,3.19-1.79,3.07-2.46-.21-1.14-4.72-.23-5.54-1.85-1.47-2.91,10.59-11.14,9.23-13.53-.61-1.07-3.32.15-4.3-1.23-1.35-1.88,2.06-6.43,3.69-8.61,2.22-3,6.2-8.29,8.61-7.38,1.89.72.31,4.37,3.07,9.23,2.43,4.26,6.14,5.85,5.54,7.38s-3.81.57-4.31,1.84c-.91,2.31,8.94,7.1,8,10.46-.46,1.64-3.18,1.87-3.08,3.07s2.48,1.07,4.92,3.08c.34.27,3.66,3.06,3.08,5.54-.65,2.74-5.75,3.53-6.77,3.69-4.49.69-5.35-1.18-10.45-1.23-4.79,0-5.22,1.59-11.07,1.84C100.46,304.23,94.78,304.48,93.93,302.27Z"/><path class="cls-7" d="M202.14,265.49C202,267,206,269,209.7,269.61c3.4.58,4.75-.27,13-1.69,5.42-.93,6.64-.93,7.92-1.25,0,0,.6-.16,1.21-.38,2-.72,8.54-3,8.76-7.52.17-3.55-3.63-7.16-7.27-7.6l-.46,0c-1.32,0-3.75.59-11.83,5.17-5.87,3.34-5.5,3.55-8.36,4.87C206.19,264.18,202.27,264,202.14,265.49Z"/><path class="cls-10" d="M232.72,259.71c-.22.39-.78.48-1.89.63a14.26,14.26,0,0,1-3.78,0,14.11,14.11,0,0,1-2.52-.63,4,4,0,0,1,0-1.26,10.61,10.61,0,0,1,.63-1.89,3.3,3.3,0,0,0-.63-2.52h8.19a4.77,4.77,0,0,0-.63,3.15C232.3,258.42,233.05,259.09,232.72,259.71Z"/><path class="cls-11" d="M211.92,254c-.63-1.22,1.21-3.39,3.15-5.67,3.88-4.56,7.39-6.39,6.94-7.56s-3.85-.08-4.41-1.26c-1-2.12,8.56-8.05,7.56-10.09-.57-1.15-3.89-.07-4.41-1.26s2.81-2.88,5.67-6.93c3.23-4.58,2.9-8.11,4.41-8.19,1.24-.06,1.58,2.35,5,8.82,2.37,4.46,4.13,6.88,3.15,8.19-.82,1.09-2.69.36-3.15,1.26-1.09,2.09,8.09,7.68,6.93,10.72-.58,1.49-3.43,1-3.78,2.52-.21.85.59,1.58,3.78,5,2.66,2.87,3.43,3.79,3.15,4.41s-1.77.64-2.52.63c-6.7-.09-7.16,2.15-13.23,1.89-4.51-.2-4-1.51-9.45-1.89C215.5,254.3,212.61,255.34,211.92,254Z"/><path class="cls-7" d="M114.14,254.49C114,256,118,258,121.7,258.61c3.4.58,4.75-.27,13-1.69,5.42-.93,6.64-.93,7.92-1.25,0,0,.6-.16,1.21-.38,2-.72,8.54-3,8.76-7.52.17-3.55-3.63-7.16-7.27-7.6l-.46,0c-1.32,0-3.75.59-11.83,5.17-5.87,3.34-5.5,3.55-8.36,4.87C118.19,253.18,114.27,253,114.14,254.49Z"/><path class="cls-10" d="M144.72,248.71c-.22.39-.78.48-1.89.63a14.26,14.26,0,0,1-3.78,0,14.11,14.11,0,0,1-2.52-.63,4,4,0,0,1,0-1.26,10.61,10.61,0,0,1,.63-1.89,3.3,3.3,0,0,0-.63-2.52h8.19a4.77,4.77,0,0,0-.63,3.15C144.3,247.42,145.05,248.09,144.72,248.71Z"/><path class="cls-11" d="M123.92,243c-.63-1.22,1.21-3.39,3.15-5.67,3.88-4.56,7.39-6.39,6.94-7.56s-3.85-.08-4.41-1.26c-1-2.12,8.56-8.05,7.56-10.09-.57-1.15-3.89-.07-4.41-1.26s2.81-2.88,5.67-6.93c3.23-4.58,2.9-8.11,4.41-8.19,1.24-.06,1.58,2.35,5,8.82,2.37,4.46,4.13,6.88,3.15,8.19-.82,1.09-2.69.36-3.15,1.26-1.09,2.09,8.09,7.68,6.93,10.72-.58,1.49-3.43,1-3.78,2.52-.21.85.59,1.58,3.78,5,2.66,2.87,3.43,3.79,3.15,4.41s-1.77.64-2.52.63c-6.7-.09-7.16,2.15-13.23,1.89-4.51-.2-4-1.51-9.45-1.89C127.5,243.3,124.61,244.34,123.92,243Z"/><path class="cls-7" d="M150,331c-.32,1.5,3.42,3.92,7,5,3.31,1,4.76.31,13.13-.09,5.5-.27,6.71-.12,8-.28,0,0,.62-.09,1.24-.23,2.1-.47,8.84-2,9.61-6.4.6-3.5-2.73-7.55-6.29-8.43l-.46-.09c-1.29-.19-3.79.13-12.36,3.7-6.24,2.6-5.89,2.86-8.89,3.82C154.18,330.22,150.31,329.58,150,331Z"/><path class="cls-10" d="M182.26,328.12c-.23.43-.83.52-2,.68a15,15,0,0,1-4.06,0,14.48,14.48,0,0,1-2.7-.68,4.28,4.28,0,0,1,0-1.35,13,13,0,0,1,.67-2,3.45,3.45,0,0,0-.67-2.7h8.79a5.21,5.21,0,0,0-.68,3.38C181.82,326.75,182.62,327.46,182.26,328.12Z"/><path class="cls-9" d="M196.39,322.71c.68-1.3-1.3-3.64-3.38-6.09-4.17-4.89-7.93-6.86-7.45-8.12s4.13-.07,4.74-1.35c1.09-2.27-9.19-8.64-8.12-10.82.61-1.24,4.18-.09,4.74-1.36s-3-3.09-6.09-7.44c-3.48-4.92-3.13-8.71-4.74-8.79-1.33-.07-1.7,2.51-5.41,9.47-2.55,4.78-4.44,7.38-3.38,8.79.87,1.17,2.88.39,3.38,1.36,1.16,2.24-8.69,8.24-7.44,11.5.61,1.6,3.68,1.11,4.06,2.7.21.92-.64,1.71-4.06,5.42-2.86,3.08-3.69,4.07-3.39,4.73s1.9.69,2.71.68c7.2-.1,7.68,2.31,14.21,2,4.84-.21,4.28-1.62,10.15-2C192.55,323,195.66,324.11,196.39,322.71Z"/><path class="cls-7" d="M875,222c-.3,3-7.92,4.91-12.45,5.27a12.16,12.16,0,0,1-1.88.08c-2.35-.1-4.49-1-11-2.51-5.36-1.24-6.58-1.31-7.84-1.7,0,0-.59-.2-1.18-.45-2-.83-8.35-3.51-8.31-8,0-3.55,4-6.94,7.68-7.17h.47c5,0,8,1.64,12.54,2.5,5.27,1,7.91.09,9,2,.63,1.09.11,2,1,3,1.16,1.25,2.94.66,5,1C871.54,216.62,875.22,219.8,875,222Z"/><path class="cls-10" d="M850.37,218.11c-.31.56-1.11.68-2.69.89a19.28,19.28,0,0,1-5.38,0,19.06,19.06,0,0,1-3.59-.89,6.27,6.27,0,0,1,0-1.8,16.74,16.74,0,0,1,.9-2.69,4.6,4.6,0,0,0-.9-3.58h11.66a6.81,6.81,0,0,0-.9,4.48C849.78,216.28,850.84,217.23,850.37,218.11Z"/><path class="cls-9" d="M819,210.93c-.91-1.73,1.72-4.82,4.48-8.07,5.52-6.49,10.51-9.09,9.87-10.76s-5.47-.1-6.28-1.79c-1.44-3,12.19-11.46,10.76-14.35-.75-1.53-4.9.15-6.28-1.8-1.58-2.22,2.26-6.68,5.38-12.55,6.3-11.83,5-20.57,7.19-20.63,2.48-.07,1.15,10.84,9,24.22,2.43,4.17,6.21,9.35,4.48,11.65-1.15,1.55-3.82.52-4.48,1.8-1.54,3,11.51,10.93,9.86,15.24-.88,2.3-5.35,2.1-5.38,3.59s4.63,1.68,9,5.38c2.74,2.34,5.51,6.23,4.48,8.07-.76,1.37-3.24.91-7.17.9-10.13,0-10.66,3-18.83,2.69-6.41-.28-5.68-2.15-13.46-2.69C824.06,211.31,820,212.79,819,210.93Z"/><path class="cls-7" d="M782,184c-.3,3-7.92,4.91-12.45,5.27a12.16,12.16,0,0,1-1.88.08c-2.35-.1-4.49-1-11-2.51-5.36-1.24-6.58-1.31-7.84-1.7,0,0-.59-.2-1.18-.45-2-.83-8.35-3.51-8.31-8,0-3.55,4-6.94,7.68-7.17h.47c5,0,8,1.64,12.54,2.5,5.27,1,7.91.09,9,2,.63,1.09.11,2,1,3,1.16,1.25,2.94.66,5,1C778.54,178.62,782.22,181.8,782,184Z"/><path class="cls-10" d="M755.77,177.21c-.31.57-1.12.69-2.72.91a18.83,18.83,0,0,1-9.09-.91,6.4,6.4,0,0,1,0-1.82,17.82,17.82,0,0,1,.91-2.72A4.69,4.69,0,0,0,744,169h11.81a6.93,6.93,0,0,0-.91,4.54C755.18,175.36,756.25,176.32,755.77,177.21Z"/><path class="cls-9" d="M724,169.94c-.92-1.75,1.75-4.88,4.54-8.17,5.59-6.57,10.65-9.21,10-10.9s-5.54-.11-6.35-1.82c-1.46-3,12.34-11.6,10.89-14.53-.76-1.55-5,.15-6.35-1.81-1.6-2.26,2.28-6.77,5.45-12.72,6.37-12,5-20.83,7.28-20.89,2.51-.07,1.16,11,9.07,24.52,2.46,4.23,6.28,9.48,4.54,11.81-1.17,1.56-3.87.52-4.54,1.82-1.57,3,11.66,11.07,10,15.44-.89,2.32-5.42,2.12-5.45,3.63s4.68,1.7,9.08,5.45c2.77,2.37,5.58,6.31,4.54,8.17-.78,1.39-3.29.92-7.27.91-10.26,0-10.79,3.09-19.07,2.73-6.49-.29-5.74-2.18-13.62-2.73C729.13,170.32,725,171.82,724,169.94Z"/><path class="cls-7" d="M983,352c-.3,3-7.92,4.91-12.45,5.27a12.16,12.16,0,0,1-1.88.08c-2.35-.1-4.49-1-11-2.51-5.36-1.24-6.58-1.31-7.84-1.7,0,0-.59-.2-1.18-.45-2-.83-8.35-3.51-8.31-8,0-3.55,4-6.94,7.68-7.17h.47c5,0,8,1.64,12.54,2.5,5.27,1,7.91.09,9,2,.63,1.09.11,2,1,3,1.16,1.25,2.94.66,5,1C979.54,346.62,983.22,349.8,983,352Z"/><path class="cls-10" d="M956.77,345.21c-.31.57-1.12.69-2.72.91a18.83,18.83,0,0,1-9.09-.91,6.4,6.4,0,0,1,0-1.82,17.82,17.82,0,0,1,.91-2.72A4.69,4.69,0,0,0,945,337h11.81a6.93,6.93,0,0,0-.91,4.54C956.18,343.36,957.25,344.32,956.77,345.21Z"/><path class="cls-9" d="M925,337.94c-.92-1.75,1.75-4.88,4.54-8.17,5.59-6.57,10.65-9.21,10-10.9s-5.54-.11-6.35-1.82c-1.46-3,12.34-11.6,10.89-14.53-.76-1.55-5,.15-6.35-1.81-1.6-2.26,2.28-6.77,5.45-12.72,6.37-12,5-20.83,7.28-20.89,2.51-.07,1.16,11,9.07,24.52,2.46,4.23,6.28,9.48,4.54,11.81-1.17,1.56-3.87.52-4.54,1.82-1.57,3,11.66,11.07,10,15.44-.89,2.32-5.42,2.12-5.45,3.63s4.68,1.7,9.08,5.45c2.77,2.37,5.58,6.31,4.54,8.17-.78,1.39-3.29.92-7.27.91-10.26,0-10.79,3.09-19.07,2.73-6.49-.29-5.74-2.18-13.62-2.73C930.13,338.32,926,339.82,925,337.94Z"/><path class="cls-7" d="M843,296c-.3,3-7.92,4.91-12.45,5.27a12.16,12.16,0,0,1-1.88.08c-2.35-.1-4.49-1-11-2.51-5.36-1.24-6.58-1.31-7.84-1.7,0,0-.59-.2-1.18-.45-2-.83-8.35-3.51-8.31-8,0-3.55,4-6.94,7.68-7.17h.47c5,0,8,1.64,12.54,2.5,5.27,1,7.91.09,9,2,.63,1.09.11,2,1,3,1.16,1.25,2.94.66,5,1C839.54,290.62,843.22,293.8,843,296Z"/><path class="cls-10" d="M817,288.38c-.24.44-.87.53-2.11.7a14.93,14.93,0,0,1-4.23,0,16.07,16.07,0,0,1-2.82-.7,5.45,5.45,0,0,1,0-1.41,13.67,13.67,0,0,1,.71-2.12,3.6,3.6,0,0,0-.71-2.81H817a5.38,5.38,0,0,0-.7,3.52C816.55,286.94,817.39,287.69,817,288.38Z"/><path class="cls-9" d="M791,283.44c-.9-2.33,3-6.8,6.34-9.15,1.91-1.37,3.66-2.05,3.52-2.82-.24-1.3-5.41-.27-6.34-2.12-1.69-3.34,12.13-12.76,10.57-15.5-.71-1.23-3.8.18-4.94-1.4-1.54-2.16,2.37-7.37,4.23-9.87,2.55-3.4,7.11-9.49,9.87-8.45,2.17.82.35,5,3.52,10.57,2.77,4.88,7,6.7,6.34,8.45-.63,1.59-4.36.65-4.93,2.11-1,2.65,10.23,8.13,9.16,12-.53,1.87-3.65,2.15-3.53,3.52s2.85,1.23,5.64,3.53c.38.31,4.19,3.51,3.52,6.34-.74,3.14-6.58,4-7.75,4.22-5.15.8-6.13-1.35-12-1.41-5.49-.05-6,1.83-12.69,2.12C798.43,285.69,791.92,286,791,283.44Z"/><path class="cls-7" d="M993,258c-.3,3-7.92,4.91-12.45,5.27a12.16,12.16,0,0,1-1.88.08c-2.35-.1-4.49-1-11-2.51-5.36-1.24-6.58-1.31-7.84-1.7,0,0-.59-.2-1.18-.45-2-.83-8.35-3.51-8.31-8,0-3.55,4-6.94,7.68-7.17h.47c5,0,8,1.64,12.54,2.5,5.27,1,7.91.09,9,2,.63,1.09.11,2,1,3,1.16,1.25,2.94.66,5,1C989.54,252.62,993.22,255.8,993,258Z"/><path class="cls-10" d="M967,250.38c-.24.44-.87.53-2.11.7a14.93,14.93,0,0,1-4.23,0,16.07,16.07,0,0,1-2.82-.7,5.45,5.45,0,0,1,0-1.41,13.67,13.67,0,0,1,.71-2.12,3.6,3.6,0,0,0-.71-2.81H967a5.38,5.38,0,0,0-.7,3.52C966.55,248.94,967.39,249.69,967,250.38Z"/><path class="cls-9" d="M941,245.44c-.9-2.33,3-6.8,6.34-9.15,1.91-1.37,3.66-2,3.52-2.82-.24-1.3-5.41-.27-6.34-2.12-1.69-3.34,12.13-12.76,10.57-15.5-.71-1.23-3.8.18-4.94-1.4-1.54-2.16,2.37-7.37,4.23-9.87,2.55-3.4,7.11-9.49,9.87-8.45,2.17.82.35,5,3.52,10.57,2.77,4.88,7,6.7,6.34,8.45-.63,1.59-4.36.65-4.93,2.11-1,2.65,10.23,8.13,9.16,12-.53,1.87-3.65,2.15-3.53,3.52s2.85,1.23,5.64,3.53c.38.31,4.19,3.51,3.52,6.34-.74,3.14-6.58,4-7.75,4.22-5.15.8-6.13-1.35-12-1.41-5.49-.05-6,1.83-12.69,2.12C948.43,247.69,941.92,248,941,245.44Z"/><path class="cls-7" d="M553,206.81c-.27,3-7.86,5-12.39,5.41a13.3,13.3,0,0,1-1.88.09c-2.35-.07-4.5-.95-11-2.39-5.37-1.18-6.59-1.24-7.86-1.62,0,0-.59-.19-1.19-.44-2-.81-8.38-3.43-8.39-7.93,0-3.54,4-7,7.61-7.24h.47c5-.05,8.07,1.54,12.56,2.36,5.28,1,7.92,0,9,1.91.64,1.09.13,2,1,3,1.17,1.23,2.95.63,5,.94C549.52,201.43,553.24,204.58,553,206.81Z"/><path class="cls-10" d="M526.85,198.06c-.26.5-1,.6-2.34.78a16.43,16.43,0,0,1-4.68,0,17,17,0,0,1-3.13-.78,5.71,5.71,0,0,1,0-1.56,16.26,16.26,0,0,1,.78-2.34,4,4,0,0,0-.78-3.12h10.15a6,6,0,0,0-.78,3.9C526.34,196.48,527.27,197.3,526.85,198.06Z"/><path class="cls-9" d="M498,192.6c-1-2.59,3.36-7.54,7-10.15,2.12-1.52,4.06-2.28,3.9-3.13-.26-1.44-6-.29-7-2.34-1.87-3.7,13.45-14.15,11.72-17.18-.78-1.37-4.21.19-5.47-1.56-1.71-2.39,2.62-8.17,4.69-10.94,2.82-3.77,7.88-10.52,10.93-9.37,2.41.91.4,5.55,3.91,11.72,3.07,5.41,7.79,7.42,7,9.37-.69,1.76-4.83.72-5.46,2.34-1.16,2.93,11.35,9,10.15,13.28-.58,2.07-4,2.38-3.9,3.9s3.15,1.36,6.24,3.91c.43.34,4.64,3.89,3.91,7-.82,3.49-7.3,4.49-8.59,4.69-5.71.88-6.8-1.5-13.28-1.56-6.07-.06-6.63,2-14.06,2.34C506.26,195.09,499,195.4,498,192.6Z"/><path class="cls-7" d="M708,274.32a7,7,0,0,1-6,5.72c-3.57.24-4.23-3.7-9.28-4.84-4.47-1-6.3,1.54-8.72-.16s-1.5-4.78-4.65-7.54a9.78,9.78,0,0,0-3.41-1.91s-.5-.37-1-.78c-1.65-1.39-6.94-5.83-5.57-10.12,1.08-3.38,5.91-5.44,9.47-4.57l.45.13c4.76,1.49,7.2,3.95,11.23,6.1,4.73,2.52,7.53,2.43,8,4.57.27,1.24-.5,2,.06,3.16.74,1.54,2.61,1.51,4.48,2.44C705.65,267.8,708.41,271.08,708,274.32Z"/><path class="cls-10" d="M688.26,257.4c-.28.52-1,.63-2.46.82a16.9,16.9,0,0,1-8.18-.82,5.45,5.45,0,0,1,0-1.63,14.61,14.61,0,0,1,.82-2.46,4.26,4.26,0,0,0-.82-3.27h10.64a6.26,6.26,0,0,0-.82,4.09C687.73,255.74,688.7,256.61,688.26,257.4Z"/><path class="cls-9" d="M658,251.67c-1-2.71,3.52-7.9,7.37-10.64,2.22-1.58,4.25-2.38,4.09-3.28-.28-1.51-6.28-.3-7.37-2.45-2-3.88,14.1-14.83,12.28-18-.82-1.44-4.42.19-5.73-1.64-1.79-2.51,2.74-8.57,4.91-11.46,3-3.95,8.26-11,11.47-9.83,2.52,1,.41,5.81,4.09,12.28,3.22,5.67,8.17,7.79,7.37,9.83-.73,1.84-5.07.76-5.73,2.45-1.21,3.08,11.89,9.45,10.64,13.92-.61,2.18-4.23,2.5-4.09,4.1s3.3,1.42,6.55,4.09c.44.36,4.86,4.08,4.09,7.37-.86,3.66-7.65,4.7-9,4.91-6,.92-7.13-1.57-13.91-1.64-6.37-.06-7,2.12-14.74,2.46C666.66,254.28,659.09,254.61,658,251.67Z"/><path class="cls-7" d="M662,189c.28,3.21-3.53,6.41-7,7-2.71.45-3-1.06-7.33-1.65-6.17-.84-8.88,1.81-11.67-.35-1.24-1-1.47-2.1-3.37-3a8.36,8.36,0,0,0-3.83-.82s-.59-.2-1.18-.45c-2-.83-8.35-3.51-8.31-8,0-3.55,4-6.94,7.68-7.17h.47c5,0,8,1.64,12.54,2.5,5.27,1,7.91.09,9,2,.63,1.09.11,2,1,3,1.16,1.25,2.94.66,5,1C658,183.53,661.74,186.07,662,189Z"/><path class="cls-10" d="M638,183c-.34.63-1.23.76-3,1a20.72,20.72,0,0,1-10-1,6.93,6.93,0,0,1,0-2,19.3,19.3,0,0,1,1-3,5.15,5.15,0,0,0-1-4h13a7.69,7.69,0,0,0-1,5C637.35,181,638.53,182.06,638,183Z"/><path class="cls-9" d="M605,174c-1-1.93,1.92-5.38,5-9,6.15-7.24,11.72-10.15,11-12s-6.1-.12-7-2c-1.61-3.36,13.59-12.78,12-16-.9-1.84-6.17-.13-7-2s4.47-4.58,9-11c5.13-7.28,4.62-12.88,7-13,2-.11,2.51,3.71,8,14,3.77,7.07,6.56,10.91,5,13-1.29,1.72-4.26.57-5,2-1.72,3.31,12.84,12.18,11,17-.91,2.36-5.44,1.63-6,4-.32,1.35.94,2.52,6,8,4.22,4.56,5.44,6,5,7s-2.8,1-4,1c-10.64-.15-11.35,3.42-21,3-7.15-.32-6.32-2.4-15-3C610.67,174.45,606.08,176.11,605,174Z"/><path class="cls-7" d="M786,227c-.3,3-7.92,4.91-12.45,5.27-1,.08-1,0-1.88.08-5.66.54-7.24,3.45-9.67,2.65-2-.68-1.32-2.83-4-4-1.41-.62-2.06-.23-5-1a25.13,25.13,0,0,1-3-1c-2.36-1-7.3-4.44-6.69-9.32a8.75,8.75,0,0,1,7.68-7.17h.47c5,0,8,1.64,12.54,2.5,5.27,1,7.91.09,9,2,.63,1.09.11,2,1,3,1.16,1.25,2.94.66,5,1C782.54,221.62,786.22,224.8,786,227Z"/><path class="cls-10" d="M763.7,223.6c-.29.53-1,.64-2.52.84a18.14,18.14,0,0,1-5,0,18.51,18.51,0,0,1-3.36-.84,5.46,5.46,0,0,1,0-1.68,15,15,0,0,1,.84-2.52,4.33,4.33,0,0,0-.84-3.36H763.7a6.42,6.42,0,0,0-.84,4.2C763.15,221.89,764.15,222.78,763.7,223.6Z"/><path class="cls-8" d="M736,216c-.85-1.63,1.61-4.52,4.2-7.57,5.17-6.08,9.85-8.52,9.24-10.08s-5.12-.1-5.88-1.68c-1.35-2.82,11.42-10.74,10.09-13.45-.76-1.54-5.19-.1-5.89-1.68s3.76-3.85,7.57-9.25c4.31-6.11,3.88-10.82,5.88-10.92,1.66-.09,2.11,3.12,6.72,11.76,3.17,6,5.52,9.18,4.21,10.93-1.09,1.45-3.58.48-4.21,1.68-1.44,2.79,10.8,10.24,9.25,14.29-.76,2-4.58,1.37-5,3.36-.27,1.14.78,2.12,5,6.72,3.55,3.84,4.57,5.06,4.2,5.89s-2.35.85-3.36.84c-8.94-.12-9.54,2.87-17.65,2.52-6-.27-5.32-2-12.61-2.52C740.73,216.39,736.88,217.78,736,216Z"/><path class="cls-7" d="M929,270c-.3,3-7.92,4.91-12.45,5.27-1,.08-1,0-1.88.08-5.66.54-7.24,3.45-9.67,2.65-2-.68-1.32-2.83-4-4-1.41-.62-2.06-.23-5-1a25.13,25.13,0,0,1-3-1c-2.36-1-7.3-4.44-6.69-9.32a8.75,8.75,0,0,1,7.68-7.17h.47c5,0,8,1.64,12.54,2.5,5.27,1,7.91.09,9,2,.63,1.09.11,2,1,3,1.16,1.25,2.94.66,5,1C925.54,264.62,929.22,267.8,929,270Z"/><path class="cls-10" d="M906.7,266.6c-.29.53-1,.64-2.52.84a18.14,18.14,0,0,1-5,0,18.51,18.51,0,0,1-3.36-.84,5.46,5.46,0,0,1,0-1.68,15,15,0,0,1,.84-2.52,4.33,4.33,0,0,0-.84-3.36H906.7a6.42,6.42,0,0,0-.84,4.2C906.15,264.89,907.15,265.78,906.7,266.6Z"/><path class="cls-8" d="M879,259c-.85-1.63,1.61-4.52,4.2-7.57,5.17-6.08,9.85-8.52,9.24-10.08s-5.12-.1-5.88-1.68c-1.35-2.82,11.42-10.74,10.09-13.45-.76-1.54-5.19-.1-5.89-1.68s3.76-3.85,7.57-9.25c4.31-6.11,3.88-10.82,5.88-10.92,1.66-.09,2.11,3.12,6.72,11.76,3.17,6,5.52,9.18,4.21,10.93-1.09,1.45-3.58.48-4.21,1.68-1.44,2.79,10.8,10.24,9.25,14.29-.76,2-4.58,1.37-5,3.36-.27,1.14.78,2.12,5,6.72,3.55,3.84,4.57,5.06,4.2,5.89s-2.35.85-3.36.84c-8.94-.12-9.54,2.87-17.65,2.52-6-.27-5.32-2-12.61-2.52C883.73,259.39,879.88,260.78,879,259Z"/><path class="cls-7" d="M786,354c-.3,3-7.92,4.91-12.45,5.27a12.16,12.16,0,0,1-1.88.08c-2.35-.1-4.49-1-11-2.51-5.36-1.24-6.58-1.31-7.84-1.7,0,0-.59-.2-1.18-.45-2-.83-8.35-3.51-8.31-8,0-3.55,4-6.94,7.68-7.17h.47c5,0,8,1.64,12.54,2.5,5.27,1,7.91.09,9,2,.63,1.09.11,2,1,3,1.16,1.25,2.94.66,5,1C782.54,348.62,786.22,351.8,786,354Z"/><path class="cls-10" d="M765,348c-.34.63-1.23.76-3,1a20.72,20.72,0,0,1-10-1,6.93,6.93,0,0,1,0-2,19.3,19.3,0,0,1,1-3,5.15,5.15,0,0,0-1-4h13a7.69,7.69,0,0,0-1,5C764.35,346,765.53,347.06,765,348Z"/><path class="cls-8" d="M785.88,340c1-1.93-1.92-5.38-5-9-6.15-7.24-11.72-10.15-11-12s6.1-.12,7-2c1.61-3.36-13.59-12.78-12-16,.9-1.84,6.17-.13,7-2s-4.47-4.58-9-11c-5.13-7.28-4.61-12.88-7-13-2-.11-2.51,3.71-8,14-3.77,7.07-6.56,10.91-5,13,1.29,1.72,4.26.57,5,2,1.72,3.31-12.84,12.18-11,17,.91,2.36,5.44,1.63,6,4,.32,1.35-.93,2.52-6,8-4.22,4.56-5.44,6-5,7s2.8,1,4,1c10.64-.15,11.36,3.42,21,3,7.15-.32,6.33-2.4,15-3C780.21,340.45,784.8,342.11,785.88,340Z"/><path class="cls-7" d="M594.77,238.61c-.42,3.2-4.83,5.5-8.35,5.32-2.74-.15-2.72-1.69-6.79-3.19-5.85-2.16-9.07-.16-11.32-2.88-1-1.21-1-2.36-2.64-3.69a8.39,8.39,0,0,0-3.56-1.63h0c-3.55-2.13-6.58-2.1-8.11-2.5-4.09-1.08-7.59-7.91-6-11,0,0,2.22-4.31,15.73-2.14l.14,0,.32.07c5.81,1.25,10.55-.9,15.81,0,2.75.49,7.49,2.16,8,5,.47,2.63-3,4.72-2,7,.46,1.07,1.43,1.07,3.23,2.19C589.63,231.48,595.24,235,594.77,238.61Z"/><path class="cls-10" d="M572,226c-.34.63-1.23.76-3,1a20.72,20.72,0,0,1-10-1,6.93,6.93,0,0,1,0-2,19.3,19.3,0,0,1,1-3,5.15,5.15,0,0,0-1-4h13a7.69,7.69,0,0,0-1,5C571.35,224,572.53,225.06,572,226Z"/><path class="cls-8" d="M592.88,218c1-1.93-1.92-5.38-5-9-6.15-7.24-11.72-10.15-11-12s6.1-.12,7-2c1.61-3.36-13.59-12.78-12-16,.9-1.84,6.17-.13,7-2s-4.47-4.58-9-11c-5.13-7.28-4.61-12.88-7-13-2-.11-2.51,3.71-8,14-3.77,7.07-6.56,10.91-5,13,1.29,1.72,4.26.57,5,2,1.72,3.31-12.84,12.18-11,17,.91,2.36,5.44,1.63,6,4,.32,1.35-.93,2.52-6,8-4.22,4.56-5.44,6-5,7s2.8,1,4,1c10.64-.15,11.36,3.42,21,3,7.15-.32,6.33-2.4,15-3C587.21,218.45,591.8,220.11,592.88,218Z"/></g></g></svg>