<?xml version="1.0" encoding="utf-8"?>
<!-- Generator: Adobe Illustrator 23.0.3, SVG Export Plug-In . SVG Version: 6.00 Build 0)  -->
<svg version="1.1" id="Layer_1" xmlns="http://www.w3.org/2000/svg" xmlns:xlink="http://www.w3.org/1999/xlink" x="0px" y="0px"
	 viewBox="0 0 1980 1024" style="enable-background:new 0 0 1980 1024;" xml:space="preserve">
<style type="text/css">
	.st0{fill:#F6F5AE;}
	.st1{fill:#F6F862;}
</style>
<g>
	<circle class="st0" cx="446.5" cy="512.5" r="4.5"/>
	<circle class="st0" cx="311.5" cy="721.5" r="4.5"/>
	<circle class="st0" cx="207.5" cy="139.5" r="4.5"/>
	<circle class="st0" cx="127.5" cy="537.5" r="4.5"/>
	<circle class="st0" cx="1040.5" cy="199.5" r="4.5"/>
	<circle class="st0" cx="1294.5" cy="420.5" r="4.5"/>
	<circle class="st1" cx="1590.5" cy="71.5" r="4.5"/>
	<circle class="st0" cx="1669.5" cy="595.5" r="4.5"/>
	<circle class="st0" cx="1934.5" cy="643.5" r="4.5"/>
	<circle class="st0" cx="1879.5" cy="925.5" r="4.5"/>
	<circle class="st1" cx="1490.5" cy="54.5" r="4.5"/>
	<circle class="st1" cx="1256.5" cy="521.5" r="4.5"/>
	<circle class="st1" cx="1674.5" cy="857.5" r="4.5"/>
	<circle class="st1" cx="604.5" cy="380.5" r="4.5"/>
	<circle class="st1" cx="780.5" cy="643.5" r="4.5"/>
	<circle class="st0" cx="909.5" cy="50.5" r="4.5"/>
	<circle class="st1" cx="136.5" cy="771.5" r="4.5"/>
	<circle class="st0" cx="406.5" cy="139.5" r="2.5"/>
	<circle class="st1" cx="479.5" cy="751.5" r="2.5"/>
	<circle class="st1" cx="988.5" cy="349.5" r="2.5"/>
	<circle class="st1" cx="876.5" cy="289.5" r="2.5"/>
	<circle class="st1" cx="1281.5" cy="320.5" r="2.5"/>
	<circle class="st1" cx="1166.5" cy="88.5" r="2.5"/>
	<circle class="st1" cx="1821.5" cy="512.5" r="2.5"/>
	<circle class="st0" cx="1318.5" cy="209.5" r="2.5"/>
	<circle class="st0" cx="1555.5" cy="600.5" r="2.5"/>
	<circle class="st0" cx="1699.5" cy="885.5" r="2.5"/>
	<circle class="st0" cx="1735.5" cy="721.5" r="2.5"/>
	<circle class="st0" cx="257.5" cy="591.5" r="2.5"/>
	<circle class="st0" cx="1718.5" cy="463.5" r="2.5"/>
	<circle class="st0" cx="778.5" cy="206.5" r="2.5"/>
	<circle class="st0" cx="956.5" cy="90.5" r="2.5"/>
	<circle class="st0" cx="140.5" cy="175.5" r="2.5"/>
	<circle class="st0" cx="723.5" cy="429.5" r="2.5"/>
	<circle class="st0" cx="1034.5" cy="572.5" r="2.5"/>
	<circle class="st0" cx="1148.5" cy="135.5" r="2.5"/>
	<circle class="st0" cx="1667.5" cy="289.5" r="2.5"/>
	<circle class="st0" cx="1105.5" cy="456.5" r="2.5"/>
	<circle class="st0" cx="1459.5" cy="146.5" r="2.5"/>
	<circle class="st0" cx="136.5" cy="932.5" r="2.5"/>
	<circle class="st0" cx="815.5" cy="468.5" r="2.5"/>
	<circle class="st0" cx="704.5" cy="322.5" r="2.5"/>
	<circle class="st0" cx="26.5" cy="680.5" r="2.5"/>
	<circle class="st0" cx="259.5" cy="950.5" r="2.5"/>
	<circle class="st1" cx="1435.5" cy="622.5" r="2.5"/>
	<circle class="st1" cx="1701.5" cy="625.5" r="2.5"/>
	<circle class="st1" cx="125.5" cy="347.5" r="2.5"/>
	<circle class="st1" cx="207.5" cy="385.5" r="2.5"/>
	<circle class="st0" cx="563.5" cy="75.5" r="4.5"/>
	<circle class="st0" cx="1814.5" cy="195.5" r="4.5"/>
	<circle class="st0" cx="1823.5" cy="67.5" r="4.5"/>
	<circle class="st0" cx="1870.5" cy="360.5" r="4.5"/>
	<circle class="st0" cx="350.5" cy="352.5" r="4.5"/>
	<circle class="st0" cx="1525.5" cy="392.5" r="4.5"/>
	<circle class="st1" cx="734.5" cy="33.5" r="4.5"/>
	<circle class="st0" cx="666.5" cy="204.5" r="4.5"/>
	<circle class="st0" cx="48.5" cy="84.5" r="4.5"/>
</g>
<g>
</g>
<g>
</g>
<g>
</g>
<g>
</g>
<g>
</g>
<g>
</g>
<g>
</g>
<g>
</g>
<g>
</g>
<g>
</g>
<g>
</g>
<g>
</g>
<g>
</g>
<g>
</g>
<g>
</g>
</svg>
